<?xml version="1.0" encoding="utf-8"?>
<!-- Generator: Adobe Illustrator 22.1.0, SVG Export Plug-In . SVG Version: 6.00 Build 0)  -->
<svg version="1.1" id="Capa_1" xmlns="http://www.w3.org/2000/svg" xmlns:xlink="http://www.w3.org/1999/xlink" x="0px" y="0px"
	 viewBox="0 0 1366 586" style="enable-background:new 0 0 1366 586;" xml:space="preserve">
<style type="text/css">
	.st0{fill:#2B4690;}
	.st1{fill:#FFFFFF;}
	.st2{font-family:'MavenPro-Regular';}
	.st3{font-size:40px;}
	.st4{font-family:'MavenPro-Bold';}
	.st5{font-size:20px;}
	.st6{font-size:25px;}
	.st7{fill:url(#SVGID_1_);}
	.st8{fill:url(#SVGID_2_);}
	.st9{fill:#14264D;}
	.st10{fill:#E3E3E3;}
	.st11{fill:#CACACA;}
	.st12{fill:#F0F0F0;}
</style>
<title>Mesa de trabajo 1</title>
<rect y="70.4" class="st0" width="1366" height="302"/>
<g>
	<text transform="matrix(1 0 0 1 443.376 193.73)" class="st1 st2 st3">No documentes el problema; arréglalo.</text>
	<text transform="matrix(1 0 0 1 443.376 223.435)" class="st1 st4 st5">Atli Björgvin Oddsson</text>
	<text transform="matrix(1 0 0 1 443.376 276.64)" class="st1 st4 st6">Dev_21</text>
</g>
<g>
	<rect x="255" y="46.5" class="st1" width="139.5" height="75.9"/>
	
		<linearGradient id="SVGID_1_" gradientUnits="userSpaceOnUse" x1="324.8011" y1="16548.9199" x2="324.8011" y2="16580.75" gradientTransform="matrix(1 0 0 1 0 -16380)">
		<stop  offset="0" style="stop-color:#FFFFFF"/>
		<stop  offset="1" style="stop-color:#F7F7F7"/>
	</linearGradient>
	<rect x="272.2" y="168.9" class="st7" width="105.3" height="31.8"/>
	
		<linearGradient id="SVGID_2_" gradientUnits="userSpaceOnUse" x1="325.0561" y1="16565.0391" x2="325.0561" y2="16610.1309" gradientTransform="matrix(1 0 0 1 0 -16380)">
		<stop  offset="0" style="stop-color:#FFFFFF"/>
		<stop  offset="1" style="stop-color:#F7F7F7"/>
	</linearGradient>
	<rect x="287.4" y="185" class="st8" width="75.4" height="45.1"/>
	<g id="_Grupo_">
		<rect x="300.8" y="184" class="st0" width="46" height="15"/>
	</g>
	<g id="_Grupo_2">
		<polygon class="st0" points="300.8,79.6 285.5,79.6 300.8,62.4 272.2,62.4 272.2,108.9 316.2,108.9 316.2,63.8 		"/>
	</g>
	<g id="_Grupo_3">
		<polygon class="st0" points="362.1,79.6 346.8,79.6 362,62.4 333.4,62.4 333.4,108.9 377.4,108.9 377.4,63.8 		"/>
	</g>
	<rect x="316.2" y="291.3" class="st9" width="17.1" height="14.7"/>
	<rect x="348.1" y="276.6" class="st9" width="14.7" height="14.7"/>
	<rect x="286.9" y="276.6" class="st9" width="14.7" height="14.7"/>
	<polygon class="st9" points="240.3,46.5 240.3,78.3 225.7,78.3 225.7,93 240.3,93 240.3,122.4 255,122.4 255,46.5 	"/>
	<polygon class="st9" points="394.6,31.8 377.4,31.8 377.4,16.6 362.1,31.8 345.1,31.8 360.3,17.1 360.3,0 343.2,0 343.2,17.1 
		306.4,17.1 306.4,0 289.3,0 289.3,17.1 272.2,17.1 272.2,31.8 255,31.8 255,46.5 394.6,46.5 	"/>
	<path class="st9" d="M394.6,139.6v-17.1H255.1v17.1h31.8v14.7l15.2-14.7h15.1l-15,14.7h-61.8v75.9H233v14.7h29.4v-14.7h-7.3v-14.7
		h17.1v14.7h14.7v14.7h14.7V262h46.5v-17.2h14.7v-14.7h14.7v-14.7h17.1v14.7h-9.8v14.7h31.8v-14.7h-7.3v-75.9h-46.5v-14.7H394.6z
		 M377.4,168.9v31.8h-14.7v14.7h-14.7v14.7h-46.5v-14.7h-14.7v-14.7h-14.7v-31.8H377.4z"/>
	<polygon class="st9" points="409.3,122.4 409.3,93 424,93 424,75.9 409.3,75.9 409.3,46.5 394.6,46.5 394.6,122.4 	"/>
</g>
<rect x="949.4" y="373.6" class="st10" width="9.9" height="9.9"/>
<rect x="1015.8" y="345.1" class="st10" width="9.9" height="9.9"/>
<rect x="693.4" y="388.5" class="st10" width="9.9" height="9.9"/>
<rect x="1229" y="348.9" class="st1" width="9.9" height="9.9"/>
<rect x="1241.6" y="413.1" class="st11" width="9.9" height="9.9"/>
<rect x="1024.6" y="477.4" class="st1" width="9.9" height="9.9"/>
<rect x="1181.5" y="309.5" class="st10" width="9.9" height="9.9"/>
<rect x="870" y="373.6" class="st10" width="9.9" height="9.9"/>
<rect x="994.8" y="487.2" class="st10" width="9.9" height="9.9"/>
<rect x="602.3" y="403.3" class="st10" width="9.9" height="9.9"/>
<rect x="1201.9" y="373.6" class="st1" width="9.9" height="9.9"/>
<rect x="614.1" y="378.6" class="st1" width="9.9" height="9.9"/>
<rect x="640.6" y="344" class="st1" width="9.9" height="9.9"/>
<rect x="381" y="442.8" class="st10" width="9.9" height="9.9"/>
<rect x="955.2" y="467.5" class="st10" width="9.9" height="9.9"/>
<rect x="810.5" y="413.1" class="st10" width="9.9" height="9.9"/>
<rect x="609.1" y="324.2" class="st1" width="9.9" height="9.9"/>
<rect x="502.9" y="328.2" class="st1" width="9.9" height="9.9"/>
<rect x="837.2" y="333.1" class="st12" width="9.9" height="9.9"/>
<rect x="568" y="340.1" class="st1" width="9.9" height="9.9"/>
<rect x="687" y="323.3" class="st10" width="9.9" height="9.9"/>
<rect x="534.8" y="363.8" class="st10" width="9.9" height="9.9"/>
<rect x="1132.5" y="363.8" class="st10" width="9.9" height="9.9"/>
<rect x="895.7" y="576.1" class="st1" width="9.9" height="9.9"/>
<rect x="524.8" y="447.7" class="st1" width="9.9" height="9.9"/>
<rect x="1079.7" y="318.3" class="st1" width="9.9" height="9.9"/>
<rect x="980" y="313.4" class="st1" width="9.9" height="9.9"/>
<rect x="1263.2" y="516.8" class="st10" width="9.9" height="9.9"/>
<rect x="786.6" y="467.5" class="st10" width="9.9" height="9.9"/>
<rect x="1127.5" y="492.2" class="st10" width="9.9" height="9.9"/>
<rect x="514.9" y="423" class="st10" width="9.9" height="9.9"/>
<rect x="1193.7" y="398.3" class="st10" width="9.9" height="9.9"/>
<rect x="286.7" y="350" class="st1" width="9.9" height="9.9"/>
<rect x="440.5" y="477.3" class="st10" width="9.9" height="9.9"/>
<rect x="633.9" y="482.3" class="st10" width="9.9" height="9.9"/>
<rect x="228.6" y="359.9" class="st10" width="9.9" height="9.9"/>
<rect x="366.2" y="398.3" class="st10" width="9.9" height="9.9"/>
<rect x="1164" y="437.8" class="st1" width="9.9" height="9.9"/>
<rect x="707.2" y="467.5" class="st10" width="9.9" height="9.9"/>
<rect x="1084.6" y="398.3" class="st10" width="9.9" height="9.9"/>
<rect x="936.4" y="353.9" class="st12" width="9.9" height="9.9"/>
<rect x="237.2" y="408.2" class="st10" width="9.9" height="9.9"/>
<rect x="443.6" y="353.9" class="st10" width="9.9" height="9.9"/>
<rect x="1005.3" y="418.1" class="st10" width="9.9" height="9.9"/>
<rect x="497.3" y="383.5" class="st1" width="9.9" height="9.9"/>
<rect x="867" y="452.6" class="st1" width="9.9" height="9.9"/>
<rect x="403.9" y="324.2" class="st1" width="9.9" height="9.9"/>
<rect x="177.7" y="349" class="st10" width="9.9" height="9.9"/>
<rect x="107.8" y="339.1" class="st10" width="9.9" height="9.9"/>
<rect x="293.6" y="487.2" class="st10" width="9.9" height="9.9"/>
<rect x="837.2" y="393.4" class="st10" width="9.9" height="9.9"/>
<rect x="128.1" y="467.5" class="st10" width="9.9" height="9.9"/>
<rect x="358.6" y="355" class="st10" width="9.9" height="9.9"/>
<rect x="807.5" y="373.6" class="st11" width="9.9" height="9.9"/>
<rect x="787.7" y="314.4" class="st10" width="9.9" height="9.9"/>
<rect x="455.4" y="442.8" class="st10" width="9.9" height="9.9"/>
<rect x="767.8" y="334.1" class="st11" width="9.9" height="9.9"/>
<rect x="514.9" y="523.6" class="st10" width="9.9" height="9.9"/>
<rect x="68.7" y="398.3" class="st12" width="9.9" height="9.9"/>
<rect x="856.5" y="477.3" class="st10" width="9.9" height="9.9"/>
<rect x="728.2" y="383.5" class="st12" width="9.9" height="9.9"/>
<rect x="221" y="318.3" class="st1" width="9.9" height="9.9"/>
</svg>
