<?xml version="1.0" encoding="utf-8"?>
<!-- Generator: Adobe Illustrator 22.1.0, SVG Export Plug-In . SVG Version: 6.00 Build 0)  -->
<svg version="1.1" id="Grid" xmlns="http://www.w3.org/2000/svg" xmlns:xlink="http://www.w3.org/1999/xlink" x="0px" y="0px"
	 viewBox="0 0 1366 795.5" style="enable-background:new 0 0 1366 795.5;" xml:space="preserve">
<style type="text/css">
	.st0{fill:url(#SVGID_1_);}
	.st1{fill:#FFFFFF;}
	.st2{fill:#E3E3E3;}
	.st3{fill:#CACACA;}
	.st4{fill:#F0F0F0;}
	.st5{fill:url(#SVGID_2_);}
	.st6{fill:url(#SVGID_3_);}
	.st7{fill:url(#SVGID_4_);}
	.st8{fill:#2B4690;}
	.st9{fill:#14264D;}
</style>
<linearGradient id="SVGID_1_" gradientUnits="userSpaceOnUse" x1="683" y1="-15814.2949" x2="683" y2="-16609.8086" gradientTransform="matrix(1 0 0 -1 0 -15814.2949)">
	<stop  offset="0" style="stop-color:#F7F7F7"/>
	<stop  offset="1" style="stop-color:#FFFFFF"/>
</linearGradient>
<rect x="0" class="st0" width="1366" height="795.5"/>
<g>
	<rect x="464.2" y="272" class="st1" width="9.9" height="9.9"/>
	<rect x="573.2" y="475.3" class="st1" width="9.9" height="9.9"/>
	<rect x="583.2" y="475.3" class="st1" width="9.9" height="9.9"/>
	<rect x="355.1" y="311.6" class="st1" width="9.9" height="9.9"/>
	<rect x="806.3" y="415.3" class="st1" width="9.9" height="9.9"/>
	<rect x="1088.4" y="331.3" class="st1" width="9.9" height="9.9"/>
	<rect x="1123.1" y="488.4" class="st1" width="9.9" height="9.9"/>
	<rect x="1053.7" y="518" class="st1" width="9.9" height="9.9"/>
	<rect x="1103.3" y="518" class="st1" width="9.9" height="9.9"/>
	<rect x="943.2" y="583.2" class="st2" width="9.9" height="9.9"/>
	<rect x="781.5" y="94.3" class="st3" width="9.9" height="9.9"/>
	<rect x="1009.6" y="183.2" class="st2" width="9.9" height="9.9"/>
	<rect x="894.5" y="21.6" class="st3" width="9.9" height="9.9"/>
	<rect x="275.6" y="158.5" class="st1" width="9.9" height="9.9"/>
	<rect x="999.7" y="459.7" class="st4" width="9.9" height="9.9"/>
	<rect x="965" y="348.6" class="st1" width="9.9" height="9.9"/>
	<rect x="960" y="509.1" class="st2" width="9.9" height="9.9"/>
	<rect x="1235.4" y="230.8" class="st1" width="9.9" height="9.9"/>
	<rect x="965" y="229.2" class="st2" width="9.9" height="9.9"/>
	<rect x="1009.6" y="554.6" class="st2" width="9.9" height="9.9"/>
	<rect x="1128.1" y="224.3" class="st2" width="9.9" height="9.9"/>
	<rect x="989.8" y="420.2" class="st1" width="9.9" height="9.9"/>
	<rect x="875.7" y="222.7" class="st3" width="9.9" height="9.9"/>
	<rect x="687.3" y="598" class="st2" width="9.9" height="9.9"/>
	<rect x="1296.7" y="262.2" class="st1" width="9.9" height="9.9"/>
	<rect x="979.9" y="420.2" class="st1" width="9.9" height="9.9"/>
	<rect x="1255.3" y="533.8" class="st1" width="9.9" height="9.9"/>
	<rect x="979.9" y="153.5" class="st2" width="9.9" height="9.9"/>
	<rect x="481.2" y="514" class="st2" width="9.9" height="9.9"/>
	<rect x="1240.6" y="301.7" class="st2" width="9.9" height="9.9"/>
	<rect x="1235.4" y="622.7" class="st3" width="9.9" height="9.9"/>
	<rect x="816.2" y="439.9" class="st2" width="9.9" height="9.9"/>
	<rect x="1018.5" y="686.9" class="st1" width="9.9" height="9.9"/>
	<rect x="883.7" y="514" class="st2" width="9.9" height="9.9"/>
	<rect x="950.1" y="459.7" class="st1" width="9.9" height="9.9"/>
	<rect x="950.1" y="449.8" class="st1" width="9.9" height="9.9"/>
	<rect x="950.1" y="439.9" class="st1" width="9.9" height="9.9"/>
	<rect x="950.1" y="430.1" class="st3" width="9.9" height="9.9"/>
	<rect x="950.1" y="420.2" class="st1" width="9.9" height="9.9"/>
	<rect x="1257" y="331.3" class="st1" width="9.9" height="9.9"/>
	<rect x="816.2" y="439.9" class="st2" width="9.9" height="9.9"/>
	<rect x="950.1" y="163.4" class="st1" width="9.9" height="9.9"/>
	<rect x="1225.5" y="523.9" class="st2" width="9.9" height="9.9"/>
	<rect x="940.2" y="459.7" class="st1" width="9.9" height="9.9"/>
	<rect x="940.2" y="449.8" class="st1" width="9.9" height="9.9"/>
	<rect x="940.2" y="430.1" class="st1" width="9.9" height="9.9"/>
	<rect x="940.2" y="420.2" class="st1" width="9.9" height="9.9"/>
	<rect x="1247.1" y="390.6" class="st1" width="9.9" height="9.9"/>
	<rect x="1311.5" y="425.9" class="st2" width="9.9" height="9.9"/>
	<rect x="863.9" y="583.2" class="st2" width="9.9" height="9.9"/>
	<rect x="1083.5" y="162.5" class="st2" width="9.9" height="9.9"/>
	<rect x="860.8" y="168.3" class="st2" width="9.9" height="9.9"/>
	<rect x="930.3" y="459.7" class="st1" width="9.9" height="9.9"/>
	<rect x="930.3" y="449.8" class="st1" width="9.9" height="9.9"/>
	<rect x="930.3" y="439.9" class="st1" width="9.9" height="9.9"/>
	<rect x="930.3" y="410.3" class="st1" width="9.9" height="9.9"/>
	<rect x="692.3" y="123.9" class="st2" width="9.9" height="9.9"/>
	<rect x="988.7" y="696.7" class="st2" width="9.9" height="9.9"/>
	<rect x="930.3" y="163.4" class="st1" width="9.9" height="9.9"/>
	<rect x="930.3" y="153.5" class="st2" width="9.9" height="9.9"/>
	<rect x="920.4" y="459.7" class="st1" width="9.9" height="9.9"/>
	<rect x="920.4" y="449.8" class="st1" width="9.9" height="9.9"/>
	<rect x="920.4" y="420.2" class="st1" width="9.9" height="9.9"/>
	<rect x="920.4" y="410.3" class="st1" width="9.9" height="9.9"/>
	<rect x="920.4" y="400.4" class="st1" width="9.9" height="9.9"/>
	<rect x="920.4" y="360.9" class="st1" width="9.9" height="9.9"/>
	<rect x="617.9" y="736.3" class="st2" width="9.9" height="9.9"/>
	<rect x="1296.7" y="481.9" class="st2" width="9.9" height="9.9"/>
	<rect x="596.1" y="612.8" class="st2" width="9.9" height="9.9"/>
	<rect x="1195.8" y="583.2" class="st1" width="9.9" height="9.9"/>
	<rect x="920.4" y="183.2" class="st2" width="9.9" height="9.9"/>
	<rect x="920.4" y="163.4" class="st1" width="9.9" height="9.9"/>
	<rect x="920.4" y="153.5" class="st1" width="9.9" height="9.9"/>
	<rect x="910.4" y="459.7" class="st1" width="9.9" height="9.9"/>
	<rect x="910.4" y="439.9" class="st1" width="9.9" height="9.9"/>
	<rect x="910.4" y="420.2" class="st1" width="9.9" height="9.9"/>
	<rect x="910.4" y="390.6" class="st1" width="9.9" height="9.9"/>
	<rect x="910.4" y="380.7" class="st1" width="9.9" height="9.9"/>
	<rect x="910.4" y="341.2" class="st1" width="9.9" height="9.9"/>
	<rect x="910.4" y="272" class="st4" width="9.9" height="9.9"/>
	<rect x="1316.5" y="256.4" class="st2" width="9.9" height="9.9"/>
	<rect x="1176.4" y="127.4" class="st3" width="9.9" height="9.9"/>
	<rect x="607.9" y="588.1" class="st1" width="9.9" height="9.9"/>
	<rect x="910.4" y="163.4" class="st1" width="9.9" height="9.9"/>
	<rect x="900.5" y="439.9" class="st1" width="9.9" height="9.9"/>
	<rect x="900.5" y="420.2" class="st1" width="9.9" height="9.9"/>
	<rect x="900.5" y="360.9" class="st1" width="9.9" height="9.9"/>
	<rect x="900.5" y="321.4" class="st1" width="9.9" height="9.9"/>
	<rect x="900.5" y="291.8" class="st1" width="9.9" height="9.9"/>
	<rect x="900.5" y="281.9" class="st1" width="9.9" height="9.9"/>
	<rect x="622.8" y="553.5" class="st1" width="9.9" height="9.9"/>
	<rect x="374.9" y="652.3" class="st2" width="9.9" height="9.9"/>
	<rect x="890.6" y="430.1" class="st1" width="9.9" height="9.9"/>
	<rect x="890.6" y="410.3" class="st1" width="9.9" height="9.9"/>
	<rect x="890.6" y="400.4" class="st4" width="9.9" height="9.9"/>
	<rect x="1243.5" y="430.1" class="st3" width="9.9" height="9.9"/>
	<rect x="1197.5" y="351.1" class="st1" width="9.9" height="9.9"/>
	<rect x="612.9" y="523.9" class="st3" width="9.9" height="9.9"/>
	<rect x="949" y="677" class="st2" width="9.9" height="9.9"/>
	<rect x="890.6" y="183.2" class="st2" width="9.9" height="9.9"/>
	<rect x="880.7" y="439.9" class="st1" width="9.9" height="9.9"/>
	<rect x="880.7" y="410.3" class="st1" width="9.9" height="9.9"/>
	<rect x="804.4" y="622.7" class="st2" width="9.9" height="9.9"/>
	<rect x="603" y="533.8" class="st1" width="9.9" height="9.9"/>
	<rect x="558.4" y="533.8" class="st1" width="9.9" height="9.9"/>
	<rect x="804.4" y="543.7" class="st4" width="9.9" height="9.9"/>
	<rect x="1286.8" y="157.6" class="st3" width="9.9" height="9.9"/>
	<rect x="870.8" y="430.1" class="st4" width="9.9" height="9.9"/>
	<rect x="870.8" y="420.2" class="st1" width="9.9" height="9.9"/>
	<rect x="870.8" y="410.3" class="st1" width="9.9" height="9.9"/>
	<rect x="593.1" y="553.5" class="st2" width="9.9" height="9.9"/>
	<rect x="1187.6" y="178.2" class="st2" width="9.9" height="9.9"/>
	<rect x="1196.4" y="458.8" class="st1" width="9.9" height="9.9"/>
	<rect x="860.8" y="439.9" class="st1" width="9.9" height="9.9"/>
	<rect x="860.8" y="430.1" class="st1" width="9.9" height="9.9"/>
	<rect x="860.8" y="420.2" class="st1" width="9.9" height="9.9"/>
	<rect x="860.8" y="311.6" class="st4" width="9.9" height="9.9"/>
	<rect x="583.2" y="553.5" class="st1" width="9.9" height="9.9"/>
	<rect x="662.5" y="543.7" class="st2" width="9.9" height="9.9"/>
	<rect x="72.3" y="370.8" class="st2" width="9.9" height="9.9"/>
	<rect x="1131.5" y="351.1" class="st1" width="9.9" height="9.9"/>
	<rect x="1167.7" y="291.8" class="st2" width="9.9" height="9.9"/>
	<rect x="1113.2" y="518" class="st2" width="9.9" height="9.9"/>
	<rect x="1113.2" y="498.2" class="st1" width="9.9" height="9.9"/>
	<rect x="1113.2" y="488.4" class="st2" width="9.9" height="9.9"/>
	<rect x="850.9" y="439.9" class="st1" width="9.9" height="9.9"/>
	<rect x="850.9" y="380.7" class="st1" width="9.9" height="9.9"/>
	<rect x="850.9" y="360.9" class="st1" width="9.9" height="9.9"/>
	<rect x="850.9" y="341.2" class="st2" width="9.9" height="9.9"/>
	<rect x="806.3" y="385.6" class="st2" width="9.9" height="9.9"/>
	<rect x="528.6" y="573.3" class="st2" width="9.9" height="9.9"/>
	<rect x="1126.4" y="573.3" class="st2" width="9.9" height="9.9"/>
	<rect x="573.2" y="504.1" class="st2" width="9.9" height="9.9"/>
	<rect x="612.9" y="94.3" class="st2" width="9.9" height="9.9"/>
	<rect x="1103.3" y="498.2" class="st1" width="9.9" height="9.9"/>
	<rect x="1167.7" y="99.2" class="st2" width="9.9" height="9.9"/>
	<rect x="841" y="380.7" class="st1" width="9.9" height="9.9"/>
	<rect x="841" y="370.8" class="st1" width="9.9" height="9.9"/>
	<rect x="841" y="360.9" class="st1" width="9.9" height="9.9"/>
	<rect x="1019.5" y="336.8" class="st2" width="9.9" height="9.9"/>
	<rect x="1093.4" y="508.1" class="st4" width="9.9" height="9.9"/>
	<rect x="1318.3" y="336.8" class="st4" width="9.9" height="9.9"/>
	<rect x="493.9" y="104.2" class="st3" width="9.9" height="9.9"/>
	<rect x="831.1" y="439.9" class="st1" width="9.9" height="9.9"/>
	<rect x="831.1" y="430.1" class="st1" width="9.9" height="9.9"/>
	<rect x="831.1" y="420.2" class="st1" width="9.9" height="9.9"/>
	<rect x="831.1" y="410.3" class="st1" width="9.9" height="9.9"/>
	<rect x="831.1" y="380.7" class="st1" width="9.9" height="9.9"/>
	<rect x="831.1" y="370.8" class="st1" width="9.9" height="9.9"/>
	<rect x="831.1" y="341.2" class="st1" width="9.9" height="9.9"/>
	<rect x="889.5" y="785.6" class="st1" width="9.9" height="9.9"/>
	<rect x="1078.5" y="375.8" class="st3" width="9.9" height="9.9"/>
	<rect x="1083.4" y="518" class="st1" width="9.9" height="9.9"/>
	<rect x="1177.7" y="494.3" class="st1" width="9.9" height="9.9"/>
	<rect x="1101.8" y="301.7" class="st4" width="9.9" height="9.9"/>
	<rect x="821.2" y="420.2" class="st1" width="9.9" height="9.9"/>
	<rect x="821.2" y="410.3" class="st1" width="9.9" height="9.9"/>
	<rect x="821.2" y="400.4" class="st1" width="9.9" height="9.9"/>
	<rect x="821.2" y="370.8" class="st1" width="9.9" height="9.9"/>
	<rect x="821.2" y="360.9" class="st1" width="9.9" height="9.9"/>
	<rect x="821.2" y="341.2" class="st1" width="9.9" height="9.9"/>
	<rect x="776.6" y="405.4" class="st1" width="9.9" height="9.9"/>
	<rect x="518.7" y="657.2" class="st1" width="9.9" height="9.9"/>
	<rect x="776.6" y="375.7" class="st2" width="9.9" height="9.9"/>
	<rect x="1197.5" y="422.7" class="st2" width="9.9" height="9.9"/>
	<rect x="1073.5" y="537.7" class="st2" width="9.9" height="9.9"/>
	<rect x="1073.5" y="527.9" class="st1" width="9.9" height="9.9"/>
	<rect x="1182.6" y="373.3" class="st1" width="9.9" height="9.9"/>
	<rect x="1083.5" y="277" class="st4" width="9.9" height="9.9"/>
	<rect x="1073.5" y="488.4" class="st1" width="9.9" height="9.9"/>
	<rect x="811.3" y="400.4" class="st1" width="9.9" height="9.9"/>
	<rect x="815.7" y="261.3" class="st3" width="9.9" height="9.9"/>
	<rect x="1063.6" y="508.1" class="st2" width="9.9" height="9.9"/>
	<rect x="1128.1" y="109.1" class="st3" width="9.9" height="9.9"/>
	<rect x="1217.3" y="147.7" class="st1" width="9.9" height="9.9"/>
	<rect x="801.3" y="439.9" class="st1" width="9.9" height="9.9"/>
	<rect x="801.3" y="430.1" class="st1" width="9.9" height="9.9"/>
	<rect x="801.3" y="341.2" class="st1" width="9.9" height="9.9"/>
	<rect x="801.3" y="331.3" class="st1" width="9.9" height="9.9"/>
	<rect x="801.3" y="232.5" class="st1" width="9.9" height="9.9"/>
	<rect x="1053.7" y="508.1" class="st1" width="9.9" height="9.9"/>
	<rect x="1053.7" y="498.2" class="st1" width="9.9" height="9.9"/>
	<rect x="974.9" y="363.4" class="st2" width="9.9" height="9.9"/>
	<rect x="791.4" y="439.9" class="st1" width="9.9" height="9.9"/>
	<rect x="791.4" y="351.1" class="st2" width="9.9" height="9.9"/>
	<rect x="791.4" y="341.2" class="st1" width="9.9" height="9.9"/>
	<rect x="791.4" y="321.4" class="st2" width="9.9" height="9.9"/>
	<rect x="771.6" y="257.2" class="st2" width="9.9" height="9.9"/>
	<rect x="781.5" y="459.7" class="st1" width="9.9" height="9.9"/>
	<rect x="781.5" y="449.8" class="st1" width="9.9" height="9.9"/>
	<rect x="781.5" y="439.9" class="st1" width="9.9" height="9.9"/>
	<rect x="781.5" y="410.3" class="st1" width="9.9" height="9.9"/>
	<rect x="781.5" y="341.2" class="st1" width="9.9" height="9.9"/>
	<rect x="781.5" y="301.7" class="st1" width="9.9" height="9.9"/>
	<rect x="781.5" y="272" class="st1" width="9.9" height="9.9"/>
	<rect x="1167.7" y="356" class="st2" width="9.9" height="9.9"/>
	<rect x="1033.9" y="537.7" class="st1" width="9.9" height="9.9"/>
	<rect x="1033.9" y="527.9" class="st2" width="9.9" height="9.9"/>
	<rect x="771.6" y="341.2" class="st1" width="9.9" height="9.9"/>
	<rect x="771.6" y="331.3" class="st1" width="9.9" height="9.9"/>
	<rect x="771.6" y="321.4" class="st1" width="9.9" height="9.9"/>
	<rect x="771.6" y="291.8" class="st1" width="9.9" height="9.9"/>
	<rect x="771.6" y="212.8" class="st2" width="9.9" height="9.9"/>
	<rect x="771.6" y="163.4" class="st1" width="9.9" height="9.9"/>
	<rect x="771.6" y="153.5" class="st1" width="9.9" height="9.9"/>
	<rect x="1257" y="726.4" class="st2" width="9.9" height="9.9"/>
	<rect x="384.8" y="370.8" class="st3" width="9.9" height="9.9"/>
	<rect x="761.7" y="173.3" class="st1" width="9.9" height="9.9"/>
	<rect x="761.7" y="163.4" class="st1" width="9.9" height="9.9"/>
	<rect x="156.2" y="148.6" class="st1" width="9.9" height="9.9"/>
	<rect x="751.8" y="173.3" class="st1" width="9.9" height="9.9"/>
	<rect x="751.8" y="163.4" class="st2" width="9.9" height="9.9"/>
	<rect x="751.8" y="153.5" class="st1" width="9.9" height="9.9"/>
	<rect x="741.8" y="163.4" class="st1" width="9.9" height="9.9"/>
	<rect x="1108.2" y="422.7" class="st2" width="9.9" height="9.9"/>
	<rect x="1037.3" y="46.6" class="st4" width="9.9" height="9.9"/>
	<rect x="493.9" y="64.6" class="st4" width="9.9" height="9.9"/>
	<rect x="399.7" y="523.9" class="st4" width="9.9" height="9.9"/>
	<rect x="780.4" y="677" class="st2" width="9.9" height="9.9"/>
	<rect x="1121.4" y="701.7" class="st2" width="9.9" height="9.9"/>
	<rect x="43.5" y="517.1" class="st2" width="9.9" height="9.9"/>
	<rect x="508.8" y="632.5" class="st2" width="9.9" height="9.9"/>
	<rect x="736.9" y="134.7" class="st3" width="9.9" height="9.9"/>
	<rect x="1019" y="128.8" class="st4" width="9.9" height="9.9"/>
	<rect x="389.8" y="7.6" class="st2" width="9.9" height="9.9"/>
	<rect x="795.5" y="188.1" class="st2" width="9.9" height="9.9"/>
	<rect x="785.4" y="157.6" class="st1" width="9.9" height="9.9"/>
	<rect x="1187.6" y="607.8" class="st2" width="9.9" height="9.9"/>
	<rect x="292.4" y="557.1" class="st2" width="9.9" height="9.9"/>
	<rect x="280.6" y="559.6" class="st1" width="9.9" height="9.9"/>
	<rect x="434.4" y="686.9" class="st2" width="9.9" height="9.9"/>
	<rect x="627.8" y="691.8" class="st2" width="9.9" height="9.9"/>
	<rect x="672.4" y="173.3" class="st1" width="9.9" height="9.9"/>
	<rect x="222.5" y="569.4" class="st2" width="9.9" height="9.9"/>
	<rect x="145.4" y="122.4" class="st2" width="9.9" height="9.9"/>
	<rect x="360" y="607.9" class="st2" width="9.9" height="9.9"/>
	<rect x="1157.8" y="647.3" class="st1" width="9.9" height="9.9"/>
	<rect x="920.4" y="476.7" class="st2" width="9.9" height="9.9"/>
	<rect x="821.2" y="126.3" class="st2" width="9.9" height="9.9"/>
	<rect x="701.1" y="677" class="st2" width="9.9" height="9.9"/>
	<rect x="641.5" y="122.4" class="st4" width="9.9" height="9.9"/>
	<rect x="930.3" y="84.4" class="st2" width="9.9" height="9.9"/>
	<rect x="310.4" y="504.1" class="st1" width="9.9" height="9.9"/>
	<rect x="152.1" y="356" class="st2" width="9.9" height="9.9"/>
	<rect x="974.9" y="296.7" class="st2" width="9.9" height="9.9"/>
	<rect x="166.6" y="279.3" class="st2" width="9.9" height="9.9"/>
	<rect x="984.3" y="417.7" class="st2" width="9.9" height="9.9"/>
	<rect x="92.1" y="313.5" class="st4" width="9.9" height="9.9"/>
	<rect x="583.2" y="439.9" class="st1" width="9.9" height="9.9"/>
	<rect x="583.2" y="341.2" class="st1" width="9.9" height="9.9"/>
	<rect x="583.2" y="321.4" class="st1" width="9.9" height="9.9"/>
	<rect x="583.2" y="311.6" class="st1" width="9.9" height="9.9"/>
	<rect x="295.5" y="114.2" class="st1" width="9.9" height="9.9"/>
	<rect x="1078.5" y="607.8" class="st2" width="9.9" height="9.9"/>
	<rect x="573.2" y="341.2" class="st1" width="9.9" height="9.9"/>
	<rect x="573.2" y="331.3" class="st1" width="9.9" height="9.9"/>
	<rect x="573.2" y="321.4" class="st1" width="9.9" height="9.9"/>
	<rect x="563.3" y="331.3" class="st1" width="9.9" height="9.9"/>
	<rect x="528.6" y="543.6" class="st4" width="9.9" height="9.9"/>
	<rect x="553.4" y="459.7" class="st1" width="9.9" height="9.9"/>
	<rect x="553.4" y="291.8" class="st1" width="9.9" height="9.9"/>
	<rect x="553.4" y="252.3" class="st2" width="9.9" height="9.9"/>
	<rect x="404.7" y="114" class="st4" width="9.9" height="9.9"/>
	<rect x="553.4" y="153.5" class="st2" width="9.9" height="9.9"/>
	<rect x="315.4" y="444.9" class="st4" width="9.9" height="9.9"/>
	<rect x="930.3" y="563.4" class="st4" width="9.9" height="9.9"/>
	<rect x="543.5" y="153.5" class="st1" width="9.9" height="9.9"/>
	<rect x="533.6" y="281.9" class="st1" width="9.9" height="9.9"/>
	<rect x="231.1" y="617.7" class="st2" width="9.9" height="9.9"/>
	<rect x="320.3" y="504.1" class="st2" width="9.9" height="9.9"/>
	<rect x="374.9" y="70.1" class="st2" width="9.9" height="9.9"/>
	<rect x="523.7" y="291.8" class="st1" width="9.9" height="9.9"/>
	<rect x="498.9" y="410.3" class="st3" width="9.9" height="9.9"/>
	<rect x="235.9" y="114.2" class="st2" width="9.9" height="9.9"/>
	<rect x="914.8" y="348.6" class="st2" width="9.9" height="9.9"/>
	<rect x="437.4" y="563.4" class="st2" width="9.9" height="9.9"/>
	<rect x="173.4" y="211.2" class="st3" width="9.9" height="9.9"/>
	<rect x="518.7" y="291.8" class="st2" width="9.9" height="9.9"/>
	<rect x="479" y="499.2" class="st1" width="9.9" height="9.9"/>
	<rect x="999.1" y="627.6" class="st2" width="9.9" height="9.9"/>
	<rect x="528.6" y="208" class="st2" width="9.9" height="9.9"/>
	<rect x="491.1" y="593" class="st1" width="9.9" height="9.9"/>
	<rect x="481.2" y="321.4" class="st2" width="9.9" height="9.9"/>
	<rect x="171.6" y="474.5" class="st2" width="9.9" height="9.9"/>
	<rect x="481.2" y="514" class="st1" width="9.9" height="9.9"/>
	<rect x="484" y="163.4" class="st1" width="9.9" height="9.9"/>
	<rect x="860.8" y="662.2" class="st1" width="9.9" height="9.9"/>
	<rect x="397.8" y="533.8" class="st1" width="9.9" height="9.9"/>
	<rect x="171.6" y="558.5" class="st2" width="9.9" height="9.9"/>
	<rect x="474.1" y="153.5" class="st4" width="9.9" height="9.9"/>
	<rect x="464.2" y="262.2" class="st3" width="9.9" height="9.9"/>
	<rect x="464.2" y="202.9" class="st2" width="9.9" height="9.9"/>
	<rect x="260.8" y="483.4" class="st2" width="9.9" height="9.9"/>
	<rect x="101.6" y="548.6" class="st2" width="9.9" height="9.9"/>
	<rect x="454.2" y="311.6" class="st1" width="9.9" height="9.9"/>
	<rect x="454.2" y="291.8" class="st1" width="9.9" height="9.9"/>
	<rect x="166.5" y="153.7" class="st1" width="9.9" height="9.9"/>
	<rect x="845.4" y="368.3" class="st2" width="9.9" height="9.9"/>
	<rect x="424.5" y="153.7" class="st2" width="9.9" height="9.9"/>
	<rect x="287.5" y="696.7" class="st2" width="9.9" height="9.9"/>
	<rect x="444.3" y="351.1" class="st2" width="9.9" height="9.9"/>
	<rect x="444.3" y="341.2" class="st1" width="9.9" height="9.9"/>
	<rect x="444.3" y="301.7" class="st1" width="9.9" height="9.9"/>
	<rect x="831.1" y="602.9" class="st2" width="9.9" height="9.9"/>
	<rect x="434.4" y="351.1" class="st1" width="9.9" height="9.9"/>
	<rect x="429.4" y="306.6" class="st2" width="9.9" height="9.9"/>
	<rect x="235.5" y="420.2" class="st2" width="9.9" height="9.9"/>
	<rect x="441.5" y="421" class="st2" width="9.9" height="9.9"/>
	<rect x="424.5" y="351.1" class="st1" width="9.9" height="9.9"/>
	<rect x="122" y="677" class="st2" width="9.9" height="9.9"/>
	<rect x="414.6" y="380.7" class="st1" width="9.9" height="9.9"/>
	<rect x="414.6" y="341.2" class="st1" width="9.9" height="9.9"/>
	<rect x="414.6" y="331.3" class="st1" width="9.9" height="9.9"/>
	<rect x="352.5" y="564.5" class="st2" width="9.9" height="9.9"/>
	<rect x="801.3" y="583.2" class="st3" width="9.9" height="9.9"/>
	<rect x="389.8" y="466.5" class="st2" width="9.9" height="9.9"/>
	<rect x="1048.7" y="425.9" class="st2" width="9.9" height="9.9"/>
	<rect x="345.1" y="360.9" class="st1" width="9.9" height="9.9"/>
	<rect x="781.5" y="523.9" class="st2" width="9.9" height="9.9"/>
	<rect x="97.1" y="203.1" class="st3" width="9.9" height="9.9"/>
	<rect x="335.2" y="380.7" class="st2" width="9.9" height="9.9"/>
	<rect x="292.4" y="336.8" class="st1" width="9.9" height="9.9"/>
	<rect x="449.3" y="652.3" class="st2" width="9.9" height="9.9"/>
	<rect x="216.1" y="321.4" class="st2" width="9.9" height="9.9"/>
	<rect x="523.7" y="479.4" class="st3" width="9.9" height="9.9"/>
	<rect x="761.7" y="543.7" class="st3" width="9.9" height="9.9"/>
	<rect x="374.9" y="163.4" class="st3" width="9.9" height="9.9"/>
	<rect x="195.6" y="152.7" class="st3" width="9.9" height="9.9"/>
	<rect x="469.4" y="483.4" class="st2" width="9.9" height="9.9"/>
	<rect x="508.8" y="733.2" class="st2" width="9.9" height="9.9"/>
	<rect x="285.5" y="321.4" class="st4" width="9.9" height="9.9"/>
	<rect x="62.5" y="607.9" class="st4" width="9.9" height="9.9"/>
	<rect x="355.1" y="351.1" class="st1" width="9.9" height="9.9"/>
	<rect x="563.4" y="422.7" class="st2" width="9.9" height="9.9"/>
	<rect x="156.2" y="439.9" class="st1" width="9.9" height="9.9"/>
	<rect x="850.4" y="686.9" class="st2" width="9.9" height="9.9"/>
	<rect x="401.9" y="211.2" class="st2" width="9.9" height="9.9"/>
	<rect x="67.4" y="163.5" class="st3" width="9.9" height="9.9"/>
	<rect x="345.1" y="351.1" class="st1" width="9.9" height="9.9"/>
	<rect x="334.5" y="148.6" class="st4" width="9.9" height="9.9"/>
	<rect x="335.2" y="351.1" class="st1" width="9.9" height="9.9"/>
	<rect x="335.2" y="341.2" class="st1" width="9.9" height="9.9"/>
	<rect x="335.2" y="331.3" class="st2" width="9.9" height="9.9"/>
	<rect x="553.4" y="455.6" class="st2" width="9.9" height="9.9"/>
	<rect x="722" y="593" class="st4" width="9.9" height="9.9"/>
	<rect x="265.8" y="380.7" class="st4" width="9.9" height="9.9"/>
	<rect x="352.5" y="266.2" class="st3" width="9.9" height="9.9"/>
	<rect x="325.3" y="212.8" class="st2" width="9.9" height="9.9"/>
	<rect x="315.4" y="252.3" class="st3" width="9.9" height="9.9"/>
	<rect x="231.1" y="251.1" class="st2" width="9.9" height="9.9"/>
	<rect x="285.5" y="272" class="st2" width="9.9" height="9.9"/>
	<rect x="145.4" y="421" class="st2" width="9.9" height="9.9"/>
	<rect x="270.7" y="183.2" class="st3" width="9.9" height="9.9"/>
	<rect x="295.6" y="321.4" class="st1" width="9.9" height="9.9"/>
	<rect x="96.7" y="459.7" class="st2" width="9.9" height="9.9"/>
</g>
<g>
	<g>
		<rect x="613.9" y="325.8" class="st1" width="139.5" height="75.9"/>
		
			<linearGradient id="SVGID_2_" gradientUnits="userSpaceOnUse" x1="664.4688" y1="-16229.2646" x2="664.4688" y2="-16253.9551" gradientTransform="matrix(1 0 0 -1 0 -15814.2949)">
			<stop  offset="0" style="stop-color:#FFFFFF"/>
			<stop  offset="1" style="stop-color:#F7F7F7"/>
		</linearGradient>
		<rect x="646.3" y="415" class="st5" width="36.4" height="24.7"/>
		
			<linearGradient id="SVGID_3_" gradientUnits="userSpaceOnUse" x1="683.6857" y1="-16262.541" x2="683.6857" y2="-16294.3672" gradientTransform="matrix(1 0 0 -1 0 -15814.2949)">
			<stop  offset="0" style="stop-color:#FFFFFF"/>
			<stop  offset="1" style="stop-color:#F7F7F7"/>
		</linearGradient>
		<rect x="631.1" y="448.2" class="st6" width="105.3" height="31.8"/>
		
			<linearGradient id="SVGID_4_" gradientUnits="userSpaceOnUse" x1="683.9421" y1="-16278.6553" x2="683.9421" y2="-16323.7451" gradientTransform="matrix(1 0 0 -1 0 -15814.2949)">
			<stop  offset="0" style="stop-color:#FFFFFF"/>
			<stop  offset="1" style="stop-color:#F7F7F7"/>
		</linearGradient>
		<rect x="646.3" y="464.4" class="st7" width="75.4" height="45.1"/>
	</g>
	<g>
		<rect id="XMLID_5_" x="659.7" y="463.3" class="st8" width="46" height="15"/>
		<polygon id="XMLID_3_" class="st8" points="659.7,358.9 644.4,358.9 659.6,341.8 631.1,341.8 631.1,388.3 675.1,388.3 
			675.1,343.1 		"/>
		<polygon id="XMLID_1_" class="st8" points="720.9,358.9 705.6,358.9 720.9,341.8 692.3,341.8 692.3,388.3 736.3,388.3 
			736.3,343.1 		"/>
		<g>
			<rect x="675.1" y="570.7" class="st9" width="17.1" height="14.7"/>
			<rect x="706.9" y="556" class="st9" width="14.7" height="14.7"/>
			<rect x="645.7" y="556" class="st9" width="14.7" height="14.7"/>
			<polygon class="st9" points="599.2,325.8 599.2,357.7 584.5,357.7 584.5,372.4 599.2,372.4 599.2,401.7 613.9,401.7 613.9,325.8 
							"/>
			<polygon class="st9" points="753.5,311.1 736.3,311.1 736.3,295.9 720.9,311.1 703.9,311.1 719.2,296.5 719.2,279.3 702,279.3 
				702,296.5 665.3,296.5 665.3,279.3 648.2,279.3 648.2,296.5 631.1,296.5 631.1,311.1 613.9,311.1 613.9,325.8 753.5,325.8 			"/>
			<path class="st9" d="M753.5,418.9v-17.1H613.9v17.1h31.8l0,14.7l15.2-14.7h15.1l-15,14.7h-15.3h-46.5v14.7v61.2h-7.3v14.7h7.3
				h14.7h7.3v-14.7h-7.3v-14.7h17.1v14.7h14.7v14.7h14.7v17.1h14.7h17.1h14.7v-17.1h14.7v-14.7h14.7v-14.7h17.1v14.7h-9.8v14.7h9.8
				h14.7h7.3v-14.7h-7.3v-61.2v-14.7h-46.5v-14.7H753.5z M736.3,448.2v14.7v17.1h-14.7v14.7h-14.7v14.7h-14.7h-17.1h-14.7v-14.7
				h-14.7v-14.7h-14.7v-17.1v-14.7H736.3z"/>
			<polygon class="st9" points="768.1,401.7 768.1,372.4 782.8,372.4 782.8,355.2 768.1,355.2 768.1,325.8 753.5,325.8 753.5,401.7 
							"/>
		</g>
	</g>
</g>
</svg>
