<?xml version="1.0" encoding="utf-8"?>
<!-- Generator: Adobe Illustrator 22.1.0, SVG Export Plug-In . SVG Version: 6.00 Build 0)  -->
<svg version="1.1" id="Capa_1" xmlns="http://www.w3.org/2000/svg" xmlns:xlink="http://www.w3.org/1999/xlink" x="0px" y="0px"
	 viewBox="0 0 55 56" style="enable-background:new 0 0 55 56;" xml:space="preserve">
<style type="text/css">
	.st0{fill:#1CB5DA;}
</style>
<path class="st0" d="M18.4,12.8v6.1h-6.1V25h12.2V12.8H18.4z M12.3,6.7v6.1h6.1V6.7H12.3z M42.7,6.7h-6.1v6.1h6.1V6.7z M36.6,43.2
	v-6.1h6.1V31H30.5v12.2H36.6z M54.9,18.9V0.6h-6.1v18.2H54.9z M42.7,49.3v-6.1h-6.1v6.1H42.7z M18.4,37.1v6.1h6.1V31H12.3v6.1H18.4z
	 M0.1,37.1v18.2h6.1V37.1H0.1z M54.9,37.1h-6.1v18.2h6.1V37.1z M12.3,49.3h6.1v-6.1h-6.1V49.3z M36.6,18.9v-6.1h-6.1V25h12.2v-6.1
	H36.6z M0.1,0.6v18.2h6.1V0.6H0.1z"/>
</svg>
