<?xml version="1.0" encoding="utf-8"?>
<!-- Generator: Adobe Illustrator 22.1.0, SVG Export Plug-In . SVG Version: 6.00 Build 0)  -->
<svg version="1.1" id="Capa_1" xmlns="http://www.w3.org/2000/svg" xmlns:xlink="http://www.w3.org/1999/xlink" x="0px" y="0px"
	 viewBox="0 0 55 56" style="enable-background:new 0 0 55 56;" xml:space="preserve">
<style type="text/css">
	.st0{fill:#1CB5DA;}
</style>
<path class="st0" d="M6.1,0.4v6.1h6.1V0.4H6.1z M48.9,0.4h-6.1v6.1h6.1V0.4z M6.1,55.4h6.1v-6.1H6.1V55.4z M0,12.6h6.1V6.5H0V12.6z
	 M0,43.1v6.1h6.1v-6.1H0z M55,12.6V6.5h-6.1v6.1H55z M48.9,55.4v-6.1h-6.1v6.1H48.9z M55,43.1h-6.1v6.1H55V43.1z M42.8,30.9h6.1
	v-6.1h-6.1V6.5H12.2v18.3H6.1v6.1h6.1v18.3h30.6V30.9z M30.6,43.1V37h-6.1v6.1h-6.1V12.6h6.1v6.1h6.1v-6.1h6.1v30.6H30.6z"/>
</svg>
