<?xml version="1.0" encoding="utf-8"?>
<!-- Generator: Adobe Illustrator 22.1.0, SVG Export Plug-In . SVG Version: 6.00 Build 0)  -->
<svg version="1.1" id="Capa_1" xmlns="http://www.w3.org/2000/svg" xmlns:xlink="http://www.w3.org/1999/xlink" x="0px" y="0px"
	 viewBox="0 0 55 56" style="enable-background:new 0 0 55 56;" xml:space="preserve">
<style type="text/css">
	.st0{fill:#1CB5DA;}
</style>
<path class="st0" d="M54.9,31V25h-6.1V31H54.9z M54.9,0.6h-6.1v6.1h6.1V0.6z M0.1,55.4h6.1v-6.1H0.1V55.4z M24.5,55.4h6.1v-6.1h-6.1
	V55.4z M0.1,25V31h6.1V25H0.1z M30.5,0.6h-6.1v6.1h6.1V0.6z M12.3,12.8h12.2V6.7h-6.1V0.6h-6.1v6.1H6.2v6.1H0.1v6.1h6.1V25h6.1V12.8
	z M12.3,43.2V31H6.2v6.1H0.1v6.1h6.1v6.1h6.1v6.1h6.1v-6.1h6.1v-6.1H12.3z M48.8,43.2h6.1v-6.1h-6.1V31h-6.1v12.2H30.5v6.1h6.1v6.1
	h6.1v-6.1h6.1V43.2z M54.9,55.4v-6.1h-6.1v6.1H54.9z M36.6,25v-6.1h-6.1v-6.1h-6.1v6.1h-6.1V25h-6.1V31h6.1v6.1h6.1v6.1h6.1v-6.1
	h6.1V31h6.1V25H36.6z M24.5,31V25h6.1V31H24.5z M42.7,12.8V25h6.1v-6.1h6.1v-6.1h-6.1V6.7h-6.1V0.6h-6.1v6.1h-6.1v6.1H42.7z
	 M0.1,0.6v6.1h6.1V0.6H0.1z"/>
</svg>
