<?xml version="1.0" encoding="utf-8"?>
<!-- Generator: Adobe Illustrator 22.1.0, SVG Export Plug-In . SVG Version: 6.00 Build 0)  -->
<svg version="1.1" id="Grid" xmlns="http://www.w3.org/2000/svg" xmlns:xlink="http://www.w3.org/1999/xlink" x="0px" y="0px"
	 viewBox="0 0 1366 795.5" style="enable-background:new 0 0 1366 795.5;" xml:space="preserve">
<style type="text/css">
	.st0{fill:url(#SVGID_1_);}
	.st1{fill:#FFFFFF;}
	.st2{fill:#E3E3E3;}
	.st3{fill:#CACACA;}
	.st4{fill:#F0F0F0;}
	.st5{fill:url(#SVGID_2_);}
	.st6{fill:url(#SVGID_3_);}
	.st7{fill:url(#SVGID_4_);}
	.st8{fill:#2B4690;}
	.st9{fill:#14264D;}
</style>
<linearGradient id="SVGID_1_" gradientUnits="userSpaceOnUse" x1="683" y1="-15588" x2="683" y2="-16383.5" gradientTransform="matrix(1 0 0 -1 0 -15588)">
	<stop  offset="0" style="stop-color:#F7F7F7"/>
	<stop  offset="1" style="stop-color:#FFFFFF"/>
</linearGradient>
<rect x="0" class="st0" width="1366" height="795.5"/>
<g>
	<rect x="464.2" y="290.2" class="st1" width="9.9" height="9.9"/>
	<rect x="573.2" y="493.5" class="st1" width="9.9" height="9.9"/>
	<rect x="583.2" y="493.5" class="st1" width="9.9" height="9.9"/>
	<rect x="355.1" y="329.8" class="st1" width="9.9" height="9.9"/>
	<rect x="275.6" y="176.7" class="st1" width="9.9" height="9.9"/>
	<rect x="481.2" y="532.2" class="st2" width="9.9" height="9.9"/>
	<rect x="617.9" y="754.5" class="st2" width="9.9" height="9.9"/>
	<rect x="596.1" y="631" class="st2" width="9.9" height="9.9"/>
	<rect x="607.9" y="606.3" class="st1" width="9.9" height="9.9"/>
	<rect x="622.8" y="571.7" class="st1" width="9.9" height="9.9"/>
	<rect x="374.9" y="670.5" class="st2" width="9.9" height="9.9"/>
	<rect x="612.9" y="542.1" class="st3" width="9.9" height="9.9"/>
	<rect x="603" y="552" class="st1" width="9.9" height="9.9"/>
	<rect x="558.4" y="552" class="st1" width="9.9" height="9.9"/>
	<rect x="593.1" y="571.7" class="st2" width="9.9" height="9.9"/>
	<rect x="583.2" y="571.7" class="st1" width="9.9" height="9.9"/>
	<rect x="662.5" y="561.9" class="st2" width="9.9" height="9.9"/>
	<rect x="72.3" y="389" class="st2" width="9.9" height="9.9"/>
	<rect x="528.6" y="591.5" class="st2" width="9.9" height="9.9"/>
	<rect x="573.2" y="522.3" class="st2" width="9.9" height="9.9"/>
	<rect x="612.9" y="112.5" class="st2" width="9.9" height="9.9"/>
	<rect x="493.9" y="122.4" class="st3" width="9.9" height="9.9"/>
	<rect x="518.7" y="675.4" class="st1" width="9.9" height="9.9"/>
	<rect x="384.8" y="389" class="st3" width="9.9" height="9.9"/>
	<rect x="156.2" y="166.8" class="st1" width="9.9" height="9.9"/>
	<rect x="493.9" y="82.9" class="st4" width="9.9" height="9.9"/>
	<rect x="399.7" y="542.1" class="st4" width="9.9" height="9.9"/>
	<rect x="43.5" y="535.3" class="st2" width="9.9" height="9.9"/>
	<rect x="508.8" y="650.7" class="st2" width="9.9" height="9.9"/>
	<rect x="389.8" y="25.8" class="st2" width="9.9" height="9.9"/>
	<rect x="292.4" y="575.3" class="st2" width="9.9" height="9.9"/>
	<rect x="280.6" y="577.8" class="st1" width="9.9" height="9.9"/>
	<rect x="434.4" y="705.1" class="st2" width="9.9" height="9.9"/>
	<rect x="627.8" y="710" class="st2" width="9.9" height="9.9"/>
	<rect x="672.4" y="191.5" class="st1" width="9.9" height="9.9"/>
	<rect x="222.5" y="587.6" class="st2" width="9.9" height="9.9"/>
	<rect x="145.4" y="140.6" class="st2" width="9.9" height="9.9"/>
	<rect x="360" y="626.1" class="st2" width="9.9" height="9.9"/>
	<rect x="641.5" y="140.6" class="st4" width="9.9" height="9.9"/>
	<rect x="310.4" y="522.3" class="st1" width="9.9" height="9.9"/>
	<rect x="152.1" y="374.2" class="st2" width="9.9" height="9.9"/>
	<rect x="166.6" y="297.5" class="st2" width="9.9" height="9.9"/>
	<rect x="92.1" y="331.7" class="st4" width="9.9" height="9.9"/>
	<rect x="583.2" y="458.1" class="st1" width="9.9" height="9.9"/>
	<rect x="583.2" y="359.4" class="st1" width="9.9" height="9.9"/>
	<rect x="583.2" y="339.6" class="st1" width="9.9" height="9.9"/>
	<rect x="583.2" y="329.8" class="st1" width="9.9" height="9.9"/>
	<rect x="295.5" y="132.4" class="st1" width="9.9" height="9.9"/>
	<rect x="573.2" y="359.4" class="st1" width="9.9" height="9.9"/>
	<rect x="573.2" y="349.5" class="st1" width="9.9" height="9.9"/>
	<rect x="573.2" y="339.6" class="st1" width="9.9" height="9.9"/>
	<rect x="563.3" y="349.5" class="st1" width="9.9" height="9.9"/>
	<rect x="528.6" y="561.9" class="st4" width="9.9" height="9.9"/>
	<rect x="553.4" y="477.9" class="st1" width="9.9" height="9.9"/>
	<rect x="553.4" y="310" class="st1" width="9.9" height="9.9"/>
	<rect x="553.4" y="270.5" class="st2" width="9.9" height="9.9"/>
	<rect x="404.7" y="132.2" class="st4" width="9.9" height="9.9"/>
	<rect x="553.4" y="171.7" class="st2" width="9.9" height="9.9"/>
	<rect x="315.4" y="463.1" class="st4" width="9.9" height="9.9"/>
	<rect x="543.5" y="171.7" class="st1" width="9.9" height="9.9"/>
	<rect x="533.6" y="300.1" class="st1" width="9.9" height="9.9"/>
	<rect x="231.1" y="635.9" class="st2" width="9.9" height="9.9"/>
	<rect x="320.3" y="522.4" class="st2" width="9.9" height="9.9"/>
	<rect x="374.9" y="88.3" class="st2" width="9.9" height="9.9"/>
	<rect x="523.7" y="310" class="st1" width="9.9" height="9.9"/>
	<rect x="498.9" y="428.5" class="st3" width="9.9" height="9.9"/>
	<rect x="235.9" y="132.4" class="st2" width="9.9" height="9.9"/>
	<rect x="437.4" y="581.6" class="st2" width="9.9" height="9.9"/>
	<rect x="173.4" y="229.5" class="st3" width="9.9" height="9.9"/>
	<rect x="518.7" y="310" class="st2" width="9.9" height="9.9"/>
	<rect x="479" y="517.4" class="st1" width="9.9" height="9.9"/>
	<rect x="528.6" y="226.2" class="st2" width="9.9" height="9.9"/>
	<rect x="491.1" y="611.2" class="st1" width="9.9" height="9.9"/>
	<rect x="481.2" y="339.6" class="st2" width="9.9" height="9.9"/>
	<rect x="171.6" y="492.7" class="st2" width="9.9" height="9.9"/>
	<rect x="481.2" y="532.2" class="st1" width="9.9" height="9.9"/>
	<rect x="484" y="181.6" class="st1" width="9.9" height="9.9"/>
	<rect x="397.8" y="552" class="st1" width="9.9" height="9.9"/>
	<rect x="171.6" y="576.7" class="st2" width="9.9" height="9.9"/>
	<rect x="474.1" y="171.7" class="st4" width="9.9" height="9.9"/>
	<rect x="464.2" y="280.4" class="st3" width="9.9" height="9.9"/>
	<rect x="464.2" y="221.1" class="st2" width="9.9" height="9.9"/>
	<rect x="260.8" y="501.6" class="st2" width="9.9" height="9.9"/>
	<rect x="101.6" y="566.8" class="st2" width="9.9" height="9.9"/>
	<rect x="454.2" y="329.8" class="st1" width="9.9" height="9.9"/>
	<rect x="454.2" y="310" class="st1" width="9.9" height="9.9"/>
	<rect x="166.5" y="171.9" class="st1" width="9.9" height="9.9"/>
	<rect x="424.5" y="171.9" class="st2" width="9.9" height="9.9"/>
	<rect x="287.5" y="715" class="st2" width="9.9" height="9.9"/>
	<rect x="444.3" y="369.3" class="st2" width="9.9" height="9.9"/>
	<rect x="444.3" y="359.4" class="st1" width="9.9" height="9.9"/>
	<rect x="444.3" y="319.9" class="st1" width="9.9" height="9.9"/>
	<rect x="434.4" y="369.3" class="st1" width="9.9" height="9.9"/>
	<rect x="429.4" y="324.8" class="st2" width="9.9" height="9.9"/>
	<rect x="235.5" y="438.4" class="st2" width="9.9" height="9.9"/>
	<rect x="441.5" y="439.2" class="st2" width="9.9" height="9.9"/>
	<rect x="424.5" y="369.3" class="st1" width="9.9" height="9.9"/>
	<rect x="122" y="695.2" class="st2" width="9.9" height="9.9"/>
	<rect x="414.6" y="398.9" class="st1" width="9.9" height="9.9"/>
	<rect x="414.6" y="359.4" class="st1" width="9.9" height="9.9"/>
	<rect x="414.6" y="349.5" class="st1" width="9.9" height="9.9"/>
	<rect x="352.5" y="582.7" class="st2" width="9.9" height="9.9"/>
	<rect x="389.8" y="484.7" class="st2" width="9.9" height="9.9"/>
	<rect x="345.1" y="379.1" class="st1" width="9.9" height="9.9"/>
	<rect x="97.1" y="221.3" class="st3" width="9.9" height="9.9"/>
	<rect x="335.2" y="398.9" class="st2" width="9.9" height="9.9"/>
	<rect x="292.4" y="355" class="st1" width="9.9" height="9.9"/>
	<rect x="449.3" y="670.5" class="st2" width="9.9" height="9.9"/>
	<rect x="216.1" y="339.6" class="st2" width="9.9" height="9.9"/>
	<rect x="523.7" y="497.7" class="st3" width="9.9" height="9.9"/>
	<rect x="374.9" y="181.6" class="st3" width="9.9" height="9.9"/>
	<rect x="195.6" y="170.9" class="st3" width="9.9" height="9.9"/>
	<rect x="469.4" y="501.6" class="st2" width="9.9" height="9.9"/>
	<rect x="508.8" y="751.4" class="st2" width="9.9" height="9.9"/>
	<rect x="285.5" y="339.6" class="st4" width="9.9" height="9.9"/>
	<rect x="62.5" y="626.1" class="st4" width="9.9" height="9.9"/>
	<rect x="355.1" y="369.3" class="st1" width="9.9" height="9.9"/>
	<rect x="563.4" y="440.9" class="st2" width="9.9" height="9.9"/>
	<rect x="156.2" y="458.1" class="st1" width="9.9" height="9.9"/>
	<rect x="401.9" y="229.4" class="st2" width="9.9" height="9.9"/>
	<rect x="67.4" y="181.7" class="st3" width="9.9" height="9.9"/>
	<rect x="345.1" y="369.3" class="st1" width="9.9" height="9.9"/>
	<rect x="334.5" y="166.8" class="st4" width="9.9" height="9.9"/>
	<rect x="335.2" y="369.3" class="st1" width="9.9" height="9.9"/>
	<rect x="335.2" y="359.4" class="st1" width="9.9" height="9.9"/>
	<rect x="335.2" y="349.5" class="st2" width="9.9" height="9.9"/>
	<rect x="553.4" y="473.8" class="st2" width="9.9" height="9.9"/>
	<rect x="265.8" y="398.9" class="st4" width="9.9" height="9.9"/>
	<rect x="352.5" y="284.4" class="st3" width="9.9" height="9.9"/>
	<rect x="325.3" y="231" class="st2" width="9.9" height="9.9"/>
	<rect x="315.4" y="270.5" class="st3" width="9.9" height="9.9"/>
	<rect x="231.1" y="269.3" class="st2" width="9.9" height="9.9"/>
	<rect x="285.5" y="290.3" class="st2" width="9.9" height="9.9"/>
	<rect x="145.4" y="439.2" class="st2" width="9.9" height="9.9"/>
	<rect x="270.7" y="201.4" class="st3" width="9.9" height="9.9"/>
	<rect x="295.6" y="339.6" class="st1" width="9.9" height="9.9"/>
	<rect x="96.7" y="477.9" class="st2" width="9.9" height="9.9"/>
</g>
<g>
	<g>
		<rect x="160.2" y="245.6" class="st1" width="139.5" height="75.9"/>
		
			<linearGradient id="SVGID_2_" gradientUnits="userSpaceOnUse" x1="210.783" y1="-15922.6914" x2="210.783" y2="-15947.3818" gradientTransform="matrix(1 0 0 -1 0 -15588)">
			<stop  offset="0" style="stop-color:#FFFFFF"/>
			<stop  offset="1" style="stop-color:#F7F7F7"/>
		</linearGradient>
		<rect x="192.6" y="334.7" class="st5" width="36.4" height="24.7"/>
		
			<linearGradient id="SVGID_3_" gradientUnits="userSpaceOnUse" x1="230" y1="-15955.9678" x2="230" y2="-15987.7939" gradientTransform="matrix(1 0 0 -1 0 -15588)">
			<stop  offset="0" style="stop-color:#FFFFFF"/>
			<stop  offset="1" style="stop-color:#F7F7F7"/>
		</linearGradient>
		<rect x="177.4" y="368" class="st6" width="105.3" height="31.8"/>
		
			<linearGradient id="SVGID_4_" gradientUnits="userSpaceOnUse" x1="230.2564" y1="-15972.082" x2="230.2564" y2="-16017.1719" gradientTransform="matrix(1 0 0 -1 0 -15588)">
			<stop  offset="0" style="stop-color:#FFFFFF"/>
			<stop  offset="1" style="stop-color:#F7F7F7"/>
		</linearGradient>
		<rect x="192.6" y="384.1" class="st7" width="75.4" height="45.1"/>
	</g>
	<g>
		<rect id="XMLID_43_" x="206" y="383.1" class="st8" width="46" height="15"/>
		<polygon id="XMLID_41_" class="st8" points="206,278.6 190.7,278.6 206,261.5 177.4,261.5 177.4,308 221.4,308 221.4,262.8 		"/>
		<polygon id="XMLID_17_" class="st8" points="267.3,278.6 252,278.6 267.2,261.5 238.6,261.5 238.6,308 282.6,308 282.6,262.8 		
			"/>
		<g>
			<rect x="221.4" y="490.4" class="st9" width="17.1" height="14.7"/>
			<rect x="253.3" y="475.7" class="st9" width="14.7" height="14.7"/>
			<rect x="192.1" y="475.7" class="st9" width="14.7" height="14.7"/>
			<polygon class="st9" points="145.5,245.6 145.5,277.4 130.8,277.4 130.8,292.1 145.5,292.1 145.5,321.5 160.2,321.5 160.2,245.6 
							"/>
			<polygon class="st9" points="299.8,230.9 282.6,230.9 282.6,215.6 267.3,230.9 250.3,230.9 265.5,216.2 265.5,199 248.4,199 
				248.4,216.2 211.6,216.2 211.6,199 194.5,199 194.5,216.2 177.4,216.2 177.4,230.9 160.2,230.9 160.2,245.6 299.8,245.6 			"/>
			<path class="st9" d="M299.8,338.6v-17.1H160.2v17.1h31.8l0,14.7l15.2-14.7h15.1l-15,14.7h-15.3h-46.5V368v61.2h-7.3v14.7h7.3
				h14.7h7.3v-14.7h-7.3v-14.7h17.1v14.7h14.7v14.7h14.7V461h14.7h17.1h14.7v-17.1h14.7v-14.7h14.7v-14.7h17.1v14.7H290v14.7h9.8
				h14.7h7.3v-14.7h-7.3V368v-14.7h-46.5v-14.7H299.8z M282.6,368v14.7v17.1h-14.7v14.7h-14.7v14.7h-14.7h-17.1h-14.7v-14.7h-14.7
				v-14.7h-14.7v-17.1V368H282.6z"/>
			<polygon class="st9" points="314.5,321.5 314.5,292.1 329.2,292.1 329.2,274.9 314.5,274.9 314.5,245.6 299.8,245.6 299.8,321.5 
							"/>
		</g>
	</g>
</g>
</svg>
