<?xml version="1.0" encoding="utf-8"?>
<!-- Generator: Adobe Illustrator 22.1.0, SVG Export Plug-In . SVG Version: 6.00 Build 0)  -->
<svg version="1.1" id="Grid" xmlns="http://www.w3.org/2000/svg" xmlns:xlink="http://www.w3.org/1999/xlink" x="0px" y="0px"
	 viewBox="0 0 1366 795.5" style="enable-background:new 0 0 1366 795.5;" xml:space="preserve">
<style type="text/css">
	.st0{fill:#FFFFFF;}
	.st1{fill:url(#SVGID_1_);}
	.st2{fill:url(#SVGID_2_);}
	.st3{fill:url(#SVGID_3_);}
	.st4{fill:#2B4690;}
	.st5{fill:#14264D;}
</style>
<g>
	<g>
		<rect x="613.9" y="325.8" class="st0" width="139.5" height="75.9"/>
		
			<linearGradient id="SVGID_1_" gradientUnits="userSpaceOnUse" x1="664.5" y1="17021.2656" x2="664.5" y2="17045.9648" gradientTransform="matrix(1 0 0 1 0 -16606.2949)">
			<stop  offset="0" style="stop-color:#FFFFFF"/>
			<stop  offset="1" style="stop-color:#F7F7F7"/>
		</linearGradient>
		<rect x="646.3" y="415" class="st1" width="36.4" height="24.7"/>
		
			<linearGradient id="SVGID_2_" gradientUnits="userSpaceOnUse" x1="683.75" y1="17054.541" x2="683.75" y2="17086.3418" gradientTransform="matrix(1 0 0 1 0 -16606.2949)">
			<stop  offset="0" style="stop-color:#FFFFFF"/>
			<stop  offset="1" style="stop-color:#F7F7F7"/>
		</linearGradient>
		<rect x="631.1" y="448.2" class="st2" width="105.3" height="31.8"/>
		
			<linearGradient id="SVGID_3_" gradientUnits="userSpaceOnUse" x1="684" y1="17070.6953" x2="684" y2="17115.7949" gradientTransform="matrix(1 0 0 1 0 -16606.2949)">
			<stop  offset="0" style="stop-color:#FFFFFF"/>
			<stop  offset="1" style="stop-color:#F7F7F7"/>
		</linearGradient>
		<rect x="646.3" y="464.4" class="st3" width="75.4" height="45.1"/>
	</g>
	<g>
		<rect id="XMLID_5_" x="659.7" y="463.3" class="st4" width="46" height="15"/>
		<polygon id="XMLID_3_" class="st4" points="659.7,358.9 644.4,358.9 659.6,341.8 631.1,341.8 631.1,388.3 675.1,388.3 
			675.1,343.1 		"/>
		<polygon id="XMLID_1_" class="st4" points="720.9,358.9 705.6,358.9 720.9,341.8 692.3,341.8 692.3,388.3 736.3,388.3 
			736.3,343.1 		"/>
		<g>
			<rect x="675.1" y="570.7" class="st5" width="17.1" height="14.7"/>
			<rect x="706.9" y="556" class="st5" width="14.7" height="14.7"/>
			<rect x="645.7" y="556" class="st5" width="14.7" height="14.7"/>
			<polygon class="st5" points="599.2,325.8 599.2,357.7 584.5,357.7 584.5,372.4 599.2,372.4 599.2,401.7 613.9,401.7 613.9,325.8 
							"/>
			<polygon class="st5" points="753.5,311.1 736.3,311.1 736.3,295.9 720.9,311.1 703.9,311.1 719.2,296.5 719.2,279.3 702,279.3 
				702,296.5 665.3,296.5 665.3,279.3 648.2,279.3 648.2,296.5 631.1,296.5 631.1,311.1 613.9,311.1 613.9,325.8 753.5,325.8 			"/>
			<path class="st5" d="M753.5,418.9v-17.1H613.9v17.1h31.8v14.7l15.2-14.7H676l-15,14.7h-15.3h-46.5v14.7v61.2h-7.3v14.7h7.3h14.7
				h7.3v-14.7h-7.3v-14.7H631v14.7h14.7v14.7h14.7v17.1h14.7h17.1h14.7v-17.1h14.7v-14.7h14.7v-14.7h17.1v14.7h-9.8v14.7h9.8h14.7
				h7.3v-14.7h-7.3v-61.2v-14.7h-46.5v-14.7L753.5,418.9L753.5,418.9z M736.3,448.2v14.7V480h-14.7v14.7h-14.7v14.7h-14.7h-17.1
				h-14.7v-14.7h-14.7V480H631v-17.1v-14.7H736.3z"/>
			<polygon class="st5" points="768.1,401.7 768.1,372.4 782.8,372.4 782.8,355.2 768.1,355.2 768.1,325.8 753.5,325.8 753.5,401.7 
							"/>
		</g>
	</g>
</g>
</svg>
