<?xml version="1.0" encoding="utf-8"?>
<!-- Generator: Adobe Illustrator 22.1.0, SVG Export Plug-In . SVG Version: 6.00 Build 0)  -->
<svg version="1.1" id="Capa_1" xmlns="http://www.w3.org/2000/svg" xmlns:xlink="http://www.w3.org/1999/xlink" x="0px" y="0px"
	 viewBox="0 0 1366 586" style="enable-background:new 0 0 1366 586;" xml:space="preserve">
<style type="text/css">
	.st0{fill:url(#SVGID_1_);}
	.st1{enable-background:new    ;}
	.st2{fill:#FFFFFF;}
	.st3{fill:url(#SVGID_2_);}
	.st4{fill:url(#SVGID_3_);}
	.st5{fill:url(#SVGID_4_);}
	.st6{fill:#2B4690;}
	.st7{fill:#14264D;}
	.st8{opacity:0.5;}
	.st9{fill:#E3E3E3;}
	.st10{fill:#CACACA;}
	.st11{fill:#F0F0F0;}
</style>
<title>Mesa de trabajo 1</title>
<linearGradient id="SVGID_1_" gradientUnits="userSpaceOnUse" x1="683" y1="215.6" x2="683" y2="517.6" gradientTransform="matrix(1 0 0 -1 0 588)">
	<stop  offset="0" style="stop-color:#14264D"/>
	<stop  offset="3.854299e-02" style="stop-color:#152851"/>
	<stop  offset="0.4455" style="stop-color:#213873"/>
	<stop  offset="0.7805" style="stop-color:#284288"/>
	<stop  offset="1" style="stop-color:#2B4690"/>
</linearGradient>
<rect y="70.4" class="st0" width="1366" height="302"/>
<g>
	<g>
		<g class="st1">
			<path class="st2" d="M585.6,174.1v16.7h-2l-10-14v14h-1.8v-16.7h2l10,14v-14H585.6z"/>
			<path class="st2" d="M590.6,189.4c-1-1.1-1.4-2.8-1.4-4.9c0-2.1,0.5-3.8,1.5-4.9s2.4-1.6,4.2-1.6c1.9,0,3.4,0.6,4.3,1.7
				c1,1.2,1.4,2.7,1.4,4.8c0,2.1-0.5,3.7-1.5,4.8s-2.4,1.7-4.2,1.7C593,191.1,591.5,190.5,590.6,189.4z M598.8,184.5
				c0-1.6-0.3-2.8-0.9-3.6c-0.6-0.8-1.6-1.2-3-1.2c-2.6,0-3.9,1.6-3.9,4.8c0,3.3,1.3,4.9,3.9,4.9
				C597.5,189.5,598.8,187.8,598.8,184.5z"/>
			<path class="st2" d="M621.4,173v15.6c0,0.9-0.5,1.5-1.6,1.9c-1.1,0.4-2.2,0.6-3.5,0.6c-1.5,0-2.9-0.5-4-1.5
				c-1.1-1-1.7-2.8-1.7-5.3c0-2,0.5-3.5,1.4-4.6c1-1.1,2.4-1.7,4.3-1.7c0.4,0,1,0.1,1.6,0.2c0.6,0.1,1.2,0.3,1.7,0.5V173H621.4z
				 M619.6,180.6c-0.5-0.3-1-0.5-1.6-0.6c-0.6-0.2-1.2-0.2-1.7-0.2c-1.3,0-2.3,0.4-2.9,1.2c-0.6,0.8-0.9,2-0.9,3.4
				c0,1.6,0.3,2.8,0.9,3.7c0.6,0.9,1.6,1.4,3.1,1.4c0.9,0,1.6-0.1,2.3-0.3c0.6-0.2,0.9-0.5,0.9-0.8V180.6z"/>
			<path class="st2" d="M626.3,189.4c-1-1.1-1.4-2.8-1.4-4.9c0-2.1,0.5-3.8,1.5-4.9s2.4-1.6,4.2-1.6c1.9,0,3.4,0.6,4.3,1.7
				c1,1.2,1.4,2.7,1.4,4.8c0,2.1-0.5,3.7-1.5,4.8s-2.4,1.7-4.2,1.7C628.7,191.1,627.2,190.5,626.3,189.4z M634.5,184.5
				c0-1.6-0.3-2.8-0.9-3.6c-0.6-0.8-1.6-1.2-3-1.2c-2.6,0-3.9,1.6-3.9,4.8c0,3.3,1.3,4.9,3.9,4.9
				C633.2,189.5,634.5,187.8,634.5,184.5z"/>
			<path class="st2" d="M640.7,189.5c-1.1-0.9-1.7-2.6-1.7-5c0-2.4,0.6-4.1,1.7-5c1.1-0.9,2.5-1.4,4.2-1.4c1.2,0,2.5,0.2,3.7,0.7
				v1.7c-1.1-0.5-2.3-0.7-3.5-0.7c-1.5,0-2.6,0.4-3.2,1.1s-1,1.9-1,3.6c0,1.7,0.3,2.9,1,3.6c0.7,0.7,1.8,1.1,3.2,1.1
				c1.2,0,2.4-0.2,3.5-0.7v1.8c-1.2,0.4-2.4,0.7-3.7,0.7C643.2,190.9,641.9,190.5,640.7,189.5z"/>
			<path class="st2" d="M653.3,189.8c-0.9-0.9-1.4-2.1-1.4-3.7v-7.9h1.8v7.5c0,1.3,0.3,2.2,0.8,2.8s1.4,0.9,2.6,0.9
				c1.2,0,2-0.3,2.6-0.9c0.6-0.6,0.8-1.5,0.8-2.8v-7.5h1.8v7.9c0,1.6-0.5,2.8-1.4,3.7c-0.9,0.9-2.2,1.3-3.9,1.3
				C655.5,191.1,654.2,190.7,653.3,189.8z"/>
			<path class="st2" d="M683.3,179.2c0.8,0.8,1.2,1.9,1.2,3.4v8.1h-1.8v-8.1c0-2-1.1-3-3.4-3c-1.1,0-2.1,0.3-3,0.9
				c0.2,0.6,0.3,1.3,0.3,2.1v8.1h-1.8v-8.1c0-2-1.1-3-3.3-3c-1,0-2.1,0.2-3.3,0.5v10.6h-1.8v-11.5c1.6-0.8,3.4-1.2,5.3-1.2
				c1.6,0,2.8,0.3,3.6,1c1.2-0.7,2.7-1,4.2-1C681.3,178,682.6,178.4,683.3,179.2z"/>
			<path class="st2" d="M697.5,179.9c0.9,1.2,1.3,2.9,1.3,4.9h-9.1c0,1.5,0.3,2.6,1,3.5c0.7,0.8,1.7,1.2,3,1.2
				c1.7,0,3.1-0.4,4.3-1.1v1.8c-1.2,0.6-2.7,0.9-4.4,0.9c-1.8,0-3.2-0.6-4.2-1.7c-1-1.1-1.5-2.8-1.5-4.9c0-2.1,0.5-3.7,1.4-4.8
				c1-1.1,2.3-1.6,4-1.6C695.2,178,696.6,178.6,697.5,179.9z M690.8,180.4c-0.6,0.5-0.9,1.4-1.1,2.7h7.1c-0.1-1.2-0.4-2-1-2.6
				c-0.6-0.6-1.4-0.9-2.6-0.9C692.2,179.7,691.4,179.9,690.8,180.4z"/>
			<path class="st2" d="M707.4,178c1.8,0,3,0.4,3.8,1.2s1.2,1.9,1.2,3.4v8.1h-1.8v-8.1c0-2-1.1-3-3.3-3c-1,0-2.1,0.2-3.3,0.5v10.6
				h-1.8v-11.5C703.8,178.4,705.5,178,707.4,178z"/>
			<path class="st2" d="M718.1,190.1c-0.6-0.6-0.9-1.4-0.9-2.4v-7.8H715v-1.6h2.2v-3.5h1.8v3.5h3.2v1.6H719v7.2
				c0,0.7,0.1,1.3,0.3,1.6c0.2,0.3,0.7,0.5,1.3,0.5c0.6,0,1.1-0.1,1.6-0.3v1.7c-0.2,0.1-0.5,0.2-0.9,0.2s-0.7,0.1-1,0.1
				C719.4,190.9,718.7,190.7,718.1,190.1z"/>
			<path class="st2" d="M734.5,179.9c0.9,1.2,1.3,2.9,1.3,4.9h-9.1c0,1.5,0.3,2.6,1.1,3.5c0.7,0.8,1.7,1.2,3,1.2
				c1.7,0,3.1-0.4,4.3-1.1v1.8c-1.2,0.6-2.7,0.9-4.4,0.9c-1.8,0-3.2-0.6-4.2-1.7s-1.5-2.8-1.5-4.9c0-2.1,0.5-3.7,1.4-4.8
				c1-1.1,2.3-1.6,4-1.6C732.2,178,733.6,178.6,734.5,179.9z M727.8,180.4c-0.6,0.5-0.9,1.4-1.1,2.7h7.1c-0.1-1.2-0.4-2-1-2.6
				c-0.6-0.6-1.4-0.9-2.6-0.9C729.2,179.7,728.4,179.9,727.8,180.4z"/>
			<path class="st2" d="M740.5,190.9c-0.6-0.2-1.3-0.4-2-0.8v-1.9c0.9,0.5,1.5,0.8,2.1,1s1.2,0.3,1.9,0.3c0.8,0,1.5-0.2,2-0.5
				c0.5-0.4,0.8-0.8,0.8-1.4c0-0.5-0.2-0.9-0.5-1.2c-0.3-0.3-0.8-0.5-1.5-0.8l-0.6-0.3c-1-0.3-1.7-0.5-2.2-0.7c-0.5-0.2-1-0.6-1.4-1
				c-0.4-0.5-0.6-1.1-0.6-1.9s0.2-1.5,0.6-2c0.4-0.5,1-0.9,1.6-1.2c0.7-0.3,1.4-0.4,2.1-0.4c0.7,0,1.2,0.1,1.7,0.2
				c0.5,0.1,1.1,0.4,1.9,0.8v1.8c-0.8-0.4-1.5-0.7-1.9-0.9s-1-0.2-1.6-0.2c-0.7,0-1.4,0.1-1.9,0.4c-0.5,0.3-0.8,0.7-0.8,1.2
				c0,0.4,0.1,0.8,0.4,1.1c0.3,0.3,0.6,0.5,1,0.7s0.9,0.3,1.6,0.5c0.8,0.3,1.5,0.5,2,0.7s0.9,0.6,1.3,1c0.4,0.5,0.6,1.1,0.6,1.9
				c0,0.8-0.2,1.6-0.7,2.1c-0.4,0.6-1,1-1.7,1.3s-1.4,0.4-2.2,0.4C741.8,191.1,741.1,191,740.5,190.9z"/>
			<path class="st2" d="M766.8,179.9c0.9,1.2,1.3,2.9,1.3,4.9H759c0,1.5,0.3,2.6,1,3.5c0.7,0.8,1.7,1.2,3,1.2c1.7,0,3.1-0.4,4.3-1.1
				v1.8c-1.2,0.6-2.7,0.9-4.4,0.9c-1.8,0-3.2-0.6-4.2-1.7c-1-1.1-1.5-2.8-1.5-4.9c0-2.1,0.5-3.7,1.4-4.8c1-1.1,2.3-1.6,4-1.6
				C764.5,178,765.9,178.6,766.8,179.9z M760.1,180.4c-0.6,0.5-0.9,1.4-1.1,2.7h7.1c-0.1-1.2-0.4-2-1-2.6c-0.6-0.6-1.4-0.9-2.6-0.9
				C761.5,179.7,760.7,179.9,760.1,180.4z"/>
			<path class="st2" d="M771.5,190.7v-17.2h1.8v17.2H771.5z"/>
			<path class="st2" d="M793.7,179.6c1.1,1.1,1.6,2.8,1.6,5.2c0,2-0.5,3.5-1.5,4.6c-1,1.1-2.5,1.7-4.4,1.7c-0.4,0-0.9-0.1-1.5-0.2
				c-0.6-0.1-1.1-0.3-1.6-0.5v5.8h-1.8v-15.6c0-0.9,0.5-1.6,1.5-1.9c1-0.4,2.2-0.5,3.5-0.6C791.2,178,792.6,178.6,793.7,179.6z
				 M792.4,188.2c0.7-0.8,1-2,1-3.4c0-1.6-0.3-2.8-0.9-3.7c-0.6-0.9-1.6-1.4-3.1-1.4c-0.9,0-1.7,0.1-2.3,0.3s-0.9,0.5-0.9,0.8v7.7
				c1,0.6,2,0.9,3.1,0.9C790.7,189.4,791.7,189,792.4,188.2z"/>
			<path class="st2" d="M798.7,179.3c0.6-0.3,1.5-0.5,2.5-0.8c1-0.3,2.1-0.4,3.2-0.4c0.2,0,0.4,0,0.8,0.2v1.6
				c-0.4,0-0.8-0.1-1.2-0.1c-0.5,0-1.1,0-1.5,0.1c-0.5,0.1-1.1,0.2-2,0.3v10.6h-1.8V179.3z"/>
			<path class="st2" d="M808.1,189.4c-1-1.1-1.4-2.8-1.4-4.9c0-2.1,0.5-3.8,1.5-4.9s2.4-1.6,4.2-1.6c2,0,3.4,0.6,4.3,1.7
				c1,1.2,1.4,2.7,1.4,4.8c0,2.1-0.5,3.7-1.5,4.8s-2.4,1.7-4.2,1.7C810.5,191.1,809.1,190.5,808.1,189.4z M816.3,184.5
				c0-1.6-0.3-2.8-0.9-3.6c-0.6-0.8-1.6-1.2-3-1.2c-2.6,0-3.9,1.6-3.9,4.8c0,3.3,1.3,4.9,3.9,4.9C815,189.5,816.3,187.8,816.3,184.5
				z"/>
			<path class="st2" d="M830.9,179.7c1,1.1,1.4,2.6,1.4,4.6c0,2.5-0.6,4.3-1.8,5.3s-2.5,1.5-4.1,1.5c-3.3,0-5-0.8-5-2.5V173h1.8v5.8
				c0.5-0.2,1.1-0.4,1.7-0.5c0.6-0.1,1.2-0.2,1.6-0.2C828.6,178.1,830,178.6,830.9,179.7z M829.6,188.1c0.6-0.9,0.9-2.2,0.9-3.8
				c0-1.4-0.3-2.6-0.9-3.4c-0.6-0.8-1.6-1.2-2.9-1.2c-0.5,0-1.1,0.1-1.7,0.2c-0.6,0.1-1.1,0.4-1.6,0.6v7.6c0,0.5,0.3,0.8,0.9,1
				c0.6,0.2,1.3,0.3,2.1,0.3C827.9,189.5,829,189,829.6,188.1z"/>
			<path class="st2" d="M835.7,190.7v-17.2h1.8v17.2H835.7z"/>
			<path class="st2" d="M850.6,179.9c0.9,1.2,1.3,2.9,1.3,4.9h-9.1c0,1.5,0.3,2.6,1,3.5c0.7,0.8,1.7,1.2,3,1.2
				c1.7,0,3.1-0.4,4.3-1.1v1.8c-1.2,0.6-2.7,0.9-4.4,0.9c-1.8,0-3.2-0.6-4.2-1.7s-1.5-2.8-1.5-4.9c0-2.1,0.5-3.7,1.4-4.8
				c1-1.1,2.3-1.6,4-1.6C848.3,178,849.7,178.6,850.6,179.9z M843.9,180.4c-0.6,0.5-0.9,1.4-1.1,2.7h7.1c-0.1-1.2-0.4-2-1-2.6
				s-1.4-0.9-2.6-0.9C845.3,179.7,844.5,179.9,843.9,180.4z"/>
			<path class="st2" d="M872.1,179.2c0.8,0.8,1.2,1.9,1.2,3.4v8.1h-1.8v-8.1c0-2-1.1-3-3.4-3c-1.1,0-2.1,0.3-3,0.9
				c0.2,0.6,0.3,1.3,0.3,2.1v8.1h-1.8v-8.1c0-2-1.1-3-3.3-3c-1,0-2.1,0.2-3.3,0.5v10.6h-1.8v-11.5c1.6-0.8,3.4-1.2,5.3-1.2
				c1.6,0,2.8,0.3,3.6,1c1.2-0.7,2.7-1,4.2-1C870.1,178,871.4,178.4,872.1,179.2z"/>
			<path class="st2" d="M885.9,179.1c0.8,0.7,1.2,1.7,1.2,3v6c0,1.2-0.5,2-1.5,2.4c-1,0.4-2.3,0.6-4.1,0.6c-1.3,0-2.4-0.3-3.4-0.9
				c-0.9-0.6-1.4-1.6-1.4-2.9c0-1.5,0.4-2.6,1.2-3.2c0.8-0.7,1.9-1,3.4-1c1.6,0,2.9,0.3,3.9,0.9v-1.5c0-1.9-1.1-2.8-3.3-2.8
				c-0.7,0-1.4,0.1-2.2,0.3c-0.7,0.2-1.4,0.5-1.9,0.9v-1.8c0.5-0.3,1.2-0.6,2-0.8c0.9-0.2,1.7-0.3,2.6-0.3
				C884,178,885.1,178.4,885.9,179.1z M884.5,189.2c0.5-0.2,0.8-0.5,0.8-1.1v-2.8c-0.4-0.2-1-0.4-1.6-0.5c-0.6-0.1-1.2-0.2-1.9-0.2
				c-1.1,0-1.9,0.2-2.4,0.6c-0.6,0.4-0.8,1-0.8,1.8c0,0.9,0.3,1.5,1,1.9c0.7,0.4,1.5,0.6,2.4,0.6C883.2,189.5,884,189.4,884.5,189.2
				z"/>
			<path class="st2" d="M891.7,188.6h2.3l-2.1,4.9h-1.8L891.7,188.6z M891.8,179.5h2.5v2.5h-2.5V179.5z"/>
			<path class="st2" d="M914.2,179.1c0.8,0.7,1.2,1.7,1.2,3v6c0,1.2-0.5,2-1.5,2.4s-2.3,0.6-4.1,0.6c-1.3,0-2.4-0.3-3.4-0.9
				s-1.4-1.6-1.4-2.9c0-1.5,0.4-2.6,1.2-3.2c0.8-0.7,1.9-1,3.4-1c1.6,0,2.9,0.3,3.9,0.9v-1.5c0-1.9-1.1-2.8-3.3-2.8
				c-0.7,0-1.4,0.1-2.2,0.3c-0.7,0.2-1.4,0.5-1.9,0.9v-1.8c0.5-0.3,1.2-0.6,2-0.8s1.7-0.3,2.6-0.3
				C912.2,178,913.3,178.4,914.2,179.1z M912.8,189.2c0.5-0.2,0.8-0.5,0.8-1.1v-2.8c-0.5-0.2-1-0.4-1.6-0.5
				c-0.6-0.1-1.2-0.2-1.9-0.2c-1,0-1.9,0.2-2.4,0.6c-0.6,0.4-0.9,1-0.9,1.8c0,0.9,0.3,1.5,1,1.9s1.5,0.6,2.4,0.6
				C911.4,189.5,912.2,189.4,912.8,189.2z"/>
			<path class="st2" d="M919.4,179.3c0.6-0.3,1.5-0.5,2.5-0.8c1-0.3,2.1-0.4,3.2-0.4c0.2,0,0.4,0,0.8,0.2v1.6
				c-0.4,0-0.8-0.1-1.2-0.1c-0.5,0-1.1,0-1.5,0.1c-0.5,0.1-1.1,0.2-2,0.3v10.6h-1.8V179.3z"/>
			<path class="st2" d="M928.8,179.3c0.6-0.3,1.5-0.5,2.5-0.8c1-0.3,2.1-0.4,3.2-0.4c0.2,0,0.4,0,0.8,0.2v1.6
				c-0.4,0-0.8-0.1-1.2-0.1c-0.6,0-1.1,0-1.5,0.1s-1.1,0.2-2,0.3v10.6h-1.8V179.3z"/>
			<path class="st2" d="M946.4,179.9c0.9,1.2,1.3,2.9,1.3,4.9h-9.1c0,1.5,0.3,2.6,1,3.5c0.7,0.8,1.7,1.2,3,1.2
				c1.7,0,3.1-0.4,4.3-1.1v1.8c-1.2,0.6-2.7,0.9-4.4,0.9c-1.8,0-3.2-0.6-4.2-1.7s-1.5-2.8-1.5-4.9c0-2.1,0.5-3.7,1.4-4.8
				c1-1.1,2.3-1.6,4-1.6C944.1,178,945.5,178.6,946.4,179.9z M939.7,180.4c-0.6,0.5-0.9,1.4-1.1,2.7h7.1c-0.1-1.2-0.4-2-1-2.6
				s-1.4-0.9-2.6-0.9C941.1,179.7,940.3,179.9,939.7,180.4z M943.2,173.8h1.9l-2.1,2.9h-1.2L943.2,173.8z"/>
			<path class="st2" d="M959.9,178.8c0.9,0.5,1.4,1.3,1.4,2.3v10.1c0,1.2-0.4,2.3-1.2,3.1s-2.2,1.3-4.2,1.3c-0.6,0-1.1,0-1.6-0.1
				s-0.9-0.2-1.3-0.3c-0.4-0.1-0.6-0.1-0.7-0.2v-1.7c0.6,0.2,1.2,0.3,1.7,0.4c0.5,0.1,1,0.2,1.6,0.2c1.5,0,2.5-0.2,3-0.8
				s0.8-1.1,0.8-1.9v-0.9c-0.5,0.2-1.1,0.4-1.7,0.5c-0.6,0.1-1.2,0.2-1.6,0.2c-1.9,0-3.3-0.6-4.3-1.7c-1-1.1-1.4-2.6-1.4-4.6
				c0-2.5,0.6-4.3,1.8-5.3s2.6-1.5,4.3-1.5C957.8,178.1,958.9,178.3,959.9,178.8z M953.2,188.2c0.6,0.8,1.6,1.2,2.9,1.2
				c0.6,0,1.1-0.1,1.7-0.2s1.1-0.4,1.6-0.7v-7.2c0-0.6-0.3-1.1-0.8-1.3c-0.5-0.2-1.2-0.4-2.1-0.4c-1.7,0-2.8,0.5-3.4,1.4
				c-0.6,0.9-0.9,2.2-0.9,3.8C952.3,186.3,952.6,187.4,953.2,188.2z"/>
			<path class="st2" d="M965.2,190.7v-17.2h1.8v17.2H965.2z"/>
			<path class="st2" d="M979.7,179.1c0.8,0.7,1.2,1.7,1.2,3v6c0,1.2-0.5,2-1.5,2.4c-1,0.4-2.3,0.6-4.1,0.6c-1.3,0-2.4-0.3-3.4-0.9
				c-0.9-0.6-1.4-1.6-1.4-2.9c0-1.5,0.4-2.6,1.2-3.2c0.8-0.7,1.9-1,3.4-1c1.6,0,2.9,0.3,3.9,0.9v-1.5c0-1.9-1.1-2.8-3.3-2.8
				c-0.7,0-1.4,0.1-2.2,0.3c-0.7,0.2-1.4,0.5-1.9,0.9v-1.8c0.5-0.3,1.2-0.6,2-0.8c0.9-0.2,1.7-0.3,2.6-0.3
				C977.8,178,978.9,178.4,979.7,179.1z M978.3,189.2c0.5-0.2,0.8-0.5,0.8-1.1v-2.8c-0.4-0.2-1-0.4-1.6-0.5
				c-0.6-0.1-1.2-0.2-1.9-0.2c-1.1,0-1.9,0.2-2.4,0.6c-0.6,0.4-0.8,1-0.8,1.8c0,0.9,0.3,1.5,1,1.9c0.7,0.4,1.5,0.6,2.4,0.6
				C976.9,189.5,977.8,189.4,978.3,189.2z"/>
			<path class="st2" d="M984.9,190.7v-17.2h1.8v17.2H984.9z"/>
			<path class="st2" d="M991.5,189.4c-1-1.1-1.4-2.8-1.4-4.9c0-2.1,0.5-3.8,1.5-4.9c1-1.1,2.4-1.6,4.2-1.6c2,0,3.4,0.6,4.3,1.7
				c1,1.2,1.4,2.7,1.4,4.8c0,2.1-0.5,3.7-1.5,4.8s-2.4,1.7-4.2,1.7C993.9,191.1,992.5,190.5,991.5,189.4z M999.7,184.5
				c0-1.6-0.3-2.8-0.9-3.6c-0.6-0.8-1.6-1.2-3-1.2c-2.6,0-3.9,1.6-3.9,4.8c0,3.3,1.3,4.9,3.9,4.9
				C998.4,189.5,999.7,187.8,999.7,184.5z"/>
		</g>
		<g class="st1">
			<path class="st2" d="M575.3,206H572l-0.8,2.2h-1.3l3.1-8h1.4l3,8h-1.4L575.3,206z M574.9,204.9l-1.2-3.4l-1.2,3.4H574.9z"/>
			<path class="st2" d="M579.4,207.8c-0.3-0.3-0.5-0.7-0.5-1.3v-3.4h-1v-1h1v-1.7h1.3v1.7h1.5v1h-1.5v3.2c0,0.3,0.1,0.5,0.2,0.6
				c0.1,0.1,0.3,0.2,0.6,0.2c0.1,0,0.3,0,0.4-0.1c0.1,0,0.3-0.1,0.4-0.1v1.1c-0.3,0.1-0.6,0.2-1,0.2
				C580.1,208.3,579.7,208.1,579.4,207.8z"/>
			<path class="st2" d="M583.2,208.1v-8.3h1.2v8.3H583.2z"/>
			<path class="st2" d="M586.2,200h1.3v1.1h-1.3V200z M586.2,202.1h1.3l0,6h-1.3V202.1z"/>
			<path class="st2" d="M598.6,204.6c0.3,0.3,0.4,0.7,0.4,1.2c0,0.8-0.3,1.4-0.8,1.8s-1.2,0.6-2.1,0.6h-3.2v-8h3
				c0.9,0,1.6,0.2,2.1,0.6c0.5,0.4,0.7,0.9,0.7,1.6c0,0.4-0.1,0.7-0.3,0.9c-0.2,0.2-0.4,0.4-0.7,0.6
				C598,204,598.3,204.2,598.6,204.6z M594.1,203.5h1.8c0.4,0,0.7-0.1,0.9-0.2c0.2-0.2,0.4-0.4,0.4-0.8c0-0.4-0.1-0.7-0.4-0.9
				s-0.6-0.3-1-0.3h-1.7V203.5z M597.2,206.7c0.3-0.2,0.4-0.5,0.4-1c0-0.5-0.1-0.8-0.5-1c-0.3-0.2-0.7-0.2-1.2-0.2h-1.9v2.5h1.9
				C596.5,207,596.9,206.9,597.2,206.7z"/>
			<path class="st2" d="M599.7,209.4c0.4,0,0.7-0.1,0.9-0.2c0.2-0.2,0.2-0.4,0.2-0.8v-6.2h1.3l0,6.2c0,1.4-0.8,2.1-2.4,2.1V209.4z
				 M600.8,200h1.3v1.1h-1.3V200z"/>
			<path class="st2" d="M604.3,207.5c-0.5-0.5-0.7-1.3-0.7-2.4c0-2.1,1-3.2,2.9-3.2c1,0,1.7,0.3,2.2,0.8c0.5,0.5,0.7,1.3,0.7,2.3
				c0,1-0.3,1.8-0.8,2.4c-0.5,0.6-1.2,0.8-2.1,0.8C605.5,208.3,604.8,208,604.3,207.5z M608.1,205.1c0-0.7-0.1-1.2-0.4-1.6
				c-0.3-0.3-0.7-0.5-1.3-0.5c-0.6,0-1,0.2-1.3,0.5c-0.3,0.4-0.4,0.9-0.4,1.6c0,0.7,0.1,1.2,0.4,1.6c0.3,0.4,0.7,0.5,1.2,0.5
				C607.5,207.2,608.1,206.5,608.1,205.1z M604.9,200.2h1.2v1.1h-1.2V200.2z M606.9,200.2h1.2v1.1h-1.2V200.2z"/>
			<path class="st2" d="M610.8,202.7c0.2-0.1,0.6-0.3,1.1-0.4s1.1-0.2,1.6-0.2c0.3,0,0.6,0.1,0.8,0.2v1c-0.2,0-0.5,0-0.8,0
				c-0.5,0-1,0-1.5,0.1v4.9h-1.3V202.7z"/>
			<path class="st2" d="M620.1,202.4c0.4,0.3,0.7,0.7,0.7,1.2v4.8c0,0.7-0.2,1.2-0.7,1.7c-0.4,0.4-1.2,0.6-2.1,0.6
				c-0.7,0-1.4-0.1-1.9-0.3v-1.2c0.7,0.2,1.3,0.4,1.8,0.4c0.6,0,1.1-0.1,1.3-0.3c0.2-0.2,0.3-0.5,0.3-0.9v-0.4
				c-0.2,0.1-0.5,0.2-0.8,0.3c-0.3,0.1-0.5,0.1-0.8,0.1c-0.9,0-1.5-0.3-2-0.8c-0.5-0.5-0.7-1.3-0.7-2.2c0-1.2,0.3-2.1,0.9-2.6
				c0.6-0.5,1.3-0.7,2.3-0.7C619.1,202,619.7,202.1,620.1,202.4z M617,206.7c0.3,0.4,0.7,0.5,1.2,0.5c0.5,0,1-0.1,1.4-0.3v-3.2
				c0-0.3-0.1-0.5-0.3-0.6c-0.2-0.1-0.5-0.2-0.9-0.2c-0.7,0-1.2,0.2-1.4,0.6c-0.3,0.4-0.4,0.9-0.4,1.6
				C616.6,205.9,616.7,206.4,617,206.7z"/>
			<path class="st2" d="M628.4,202.1l-2.5,6h-1.3l-2.5-6h1.4l1.9,4.6l1.8-4.6H628.4z"/>
			<path class="st2" d="M629.6,200h1.3v1.1h-1.3V200z M629.6,202.1h1.3l0,6h-1.3V202.1z"/>
			<path class="st2" d="M634,202.1c0.5-0.1,1-0.2,1.5-0.2c0.8,0,1.5,0.2,1.9,0.5c0.4,0.4,0.6,0.9,0.6,1.6v4h-1.3v-3.8
				c0-0.8-0.5-1.3-1.4-1.3c-0.5,0-0.9,0.1-1.3,0.2v4.8h-1.3v-5.5C633.1,202.4,633.5,202.3,634,202.1z"/>
			<path class="st2" d="M643.9,207.2c-0.6-0.7-1-1.7-1-3.1c0-1.4,0.3-2.4,0.9-3.1s1.6-1,2.8-1c1.2,0,2.1,0.3,2.8,1
				c0.6,0.7,1,1.7,1,3.1c0,1.4-0.3,2.4-1,3.1c-0.6,0.7-1.6,1-2.8,1C645.4,208.3,644.5,207.9,643.9,207.2z M648.4,206.4
				c0.4-0.5,0.6-1.2,0.6-2.3c0-1-0.2-1.8-0.6-2.3c-0.4-0.5-1-0.7-1.8-0.7s-1.4,0.2-1.8,0.7c-0.4,0.5-0.6,1.2-0.6,2.3
				s0.2,1.8,0.6,2.3c0.4,0.5,1,0.7,1.8,0.7C647.4,207.1,648,206.9,648.4,206.4z"/>
			<path class="st2" d="M657.1,199.6v7.3c0,0.3-0.1,0.6-0.4,0.8s-0.6,0.4-1,0.5c-0.4,0.1-0.8,0.2-1.2,0.2c-0.9,0-1.6-0.2-2.1-0.7
				c-0.6-0.5-0.8-1.3-0.8-2.5c0-1,0.2-1.7,0.7-2.3c0.5-0.5,1.2-0.8,2.1-0.8c0.2,0,0.5,0,0.8,0.1c0.3,0.1,0.5,0.1,0.8,0.3v-2.7H657.1
				z M655.9,203.4c-0.2-0.1-0.4-0.2-0.6-0.3s-0.5-0.1-0.7-0.1c-1.1,0-1.7,0.7-1.7,2c0,0.7,0.1,1.2,0.4,1.6c0.3,0.4,0.7,0.6,1.3,0.6
				c0.4,0,0.7,0,0.9-0.1s0.4-0.2,0.4-0.3V203.4z"/>
			<path class="st2" d="M664.2,199.6v7.3c0,0.3-0.1,0.6-0.4,0.8s-0.6,0.4-1,0.5c-0.4,0.1-0.8,0.2-1.2,0.2c-0.9,0-1.6-0.2-2.1-0.7
				c-0.6-0.5-0.8-1.3-0.8-2.5c0-1,0.2-1.7,0.7-2.3c0.5-0.5,1.2-0.8,2.1-0.8c0.2,0,0.5,0,0.8,0.1c0.3,0.1,0.5,0.1,0.8,0.3v-2.7H664.2
				z M662.9,203.4c-0.2-0.1-0.4-0.2-0.6-0.3s-0.5-0.1-0.7-0.1c-1.1,0-1.7,0.7-1.7,2c0,0.7,0.1,1.2,0.4,1.6c0.3,0.4,0.7,0.6,1.3,0.6
				c0.4,0,0.7,0,0.9-0.1s0.4-0.2,0.4-0.3V203.4z"/>
			<path class="st2" d="M666.6,208.2c-0.3-0.1-0.6-0.2-0.9-0.4v-1.2c0.4,0.2,0.7,0.4,1,0.5c0.3,0.1,0.6,0.2,1,0.2
				c0.3,0,0.6-0.1,0.8-0.2c0.2-0.1,0.3-0.3,0.3-0.5c0-0.2-0.1-0.4-0.2-0.5c-0.2-0.1-0.4-0.2-0.7-0.3l-0.3-0.1
				c-0.6-0.1-1-0.3-1.3-0.6s-0.5-0.7-0.5-1.2c0-0.4,0.1-0.8,0.3-1.1c0.2-0.3,0.5-0.5,0.8-0.6s0.7-0.2,1.1-0.2c0.4,0,0.7,0.1,1,0.1
				c0.3,0.1,0.6,0.2,0.9,0.4v1.1c-0.4-0.2-0.7-0.4-0.9-0.4c-0.2-0.1-0.5-0.1-0.8-0.1c-0.3,0-0.6,0.1-0.8,0.2
				c-0.2,0.1-0.3,0.3-0.3,0.5c0,0.3,0.1,0.4,0.3,0.6c0.2,0.1,0.5,0.2,0.9,0.4c0.4,0.1,0.7,0.2,1,0.3c0.2,0.1,0.4,0.3,0.6,0.5
				c0.2,0.2,0.3,0.6,0.3,1c0,0.6-0.2,1.1-0.7,1.4c-0.5,0.3-1,0.5-1.7,0.5C667.3,208.3,666.9,208.3,666.6,208.2z"/>
			<path class="st2" d="M672.3,208.2c-0.3-0.1-0.6-0.2-0.9-0.4v-1.2c0.4,0.2,0.7,0.4,1,0.5c0.3,0.1,0.6,0.2,1,0.2
				c0.3,0,0.6-0.1,0.8-0.2c0.2-0.1,0.3-0.3,0.3-0.5c0-0.2-0.1-0.4-0.2-0.5c-0.2-0.1-0.4-0.2-0.7-0.3l-0.3-0.1
				c-0.6-0.1-1-0.3-1.3-0.6s-0.5-0.7-0.5-1.2c0-0.4,0.1-0.8,0.3-1.1c0.2-0.3,0.5-0.5,0.8-0.6s0.7-0.2,1.1-0.2c0.4,0,0.7,0.1,1,0.1
				c0.3,0.1,0.6,0.2,0.9,0.4v1.1c-0.4-0.2-0.7-0.4-0.9-0.4c-0.2-0.1-0.5-0.1-0.8-0.1c-0.3,0-0.6,0.1-0.8,0.2
				c-0.2,0.1-0.3,0.3-0.3,0.5c0,0.3,0.1,0.4,0.3,0.6c0.2,0.1,0.5,0.2,0.9,0.4c0.4,0.1,0.7,0.2,1,0.3c0.2,0.1,0.4,0.3,0.6,0.5
				c0.2,0.2,0.3,0.6,0.3,1c0,0.6-0.2,1.1-0.7,1.4c-0.5,0.3-1,0.5-1.7,0.5C672.9,208.3,672.5,208.3,672.3,208.2z"/>
			<path class="st2" d="M677.6,207.5c-0.5-0.5-0.7-1.3-0.7-2.4c0-2.1,1-3.2,2.9-3.2c1,0,1.7,0.3,2.2,0.8c0.5,0.5,0.7,1.3,0.7,2.3
				c0,1-0.3,1.8-0.8,2.4c-0.5,0.6-1.2,0.8-2.1,0.8C678.8,208.3,678.1,208,677.6,207.5z M681.4,205.1c0-0.7-0.1-1.2-0.4-1.6
				c-0.3-0.3-0.7-0.5-1.3-0.5c-0.6,0-1,0.2-1.3,0.5c-0.3,0.4-0.4,0.9-0.4,1.6c0,0.7,0.1,1.2,0.4,1.6c0.3,0.4,0.7,0.5,1.2,0.5
				C680.8,207.2,681.4,206.5,681.4,205.1z"/>
			<path class="st2" d="M685.4,202.1c0.5-0.1,1-0.2,1.5-0.2c0.8,0,1.5,0.2,1.9,0.5c0.4,0.4,0.6,0.9,0.6,1.6v4h-1.3v-3.8
				c0-0.8-0.5-1.3-1.4-1.3c-0.5,0-0.9,0.1-1.3,0.2v4.8h-1.3v-5.5C684.5,202.4,684.9,202.3,685.4,202.1z"/>
			<path class="st2" d="M694.5,204.2h5v0.9h-5V204.2z"/>
			<path class="st2" d="M709.4,202.7c0.5,0.5,0.8,1.3,0.8,2.5c0,0.9-0.2,1.7-0.7,2.2c-0.5,0.6-1.2,0.8-2.1,0.8c-0.2,0-0.5,0-0.7-0.1
				c-0.3-0.1-0.5-0.1-0.8-0.3v2.6h-1.2v-7.3c0-0.5,0.3-0.8,0.8-1c0.5-0.2,1.1-0.3,1.9-0.3C708.2,202,708.9,202.2,709.4,202.7z
				 M708.5,206.7c0.3-0.3,0.4-0.8,0.4-1.5c0-0.7-0.1-1.2-0.4-1.6s-0.7-0.6-1.3-0.6c-0.4,0-0.7,0-1,0.1c-0.2,0.1-0.4,0.2-0.4,0.4v3.3
				c0.4,0.2,0.8,0.3,1.3,0.3C707.7,207.2,708.2,207.1,708.5,206.7z"/>
			<path class="st2" d="M711.7,202.7c0.2-0.1,0.6-0.3,1.1-0.4s1.1-0.2,1.6-0.2c0.3,0,0.6,0.1,0.8,0.2v1c-0.2,0-0.5,0-0.8,0
				c-0.5,0-1,0-1.5,0.1v4.9h-1.3V202.7z"/>
			<path class="st2" d="M716.5,207.5c-0.5-0.5-0.7-1.3-0.7-2.4c0-2.1,1-3.2,2.9-3.2c1,0,1.7,0.3,2.2,0.8s0.7,1.3,0.7,2.3
				c0,1-0.3,1.8-0.8,2.4c-0.5,0.6-1.2,0.8-2.1,0.8C717.7,208.3,717,208,716.5,207.5z M720.3,205.1c0-0.7-0.1-1.2-0.4-1.6
				c-0.3-0.3-0.7-0.5-1.3-0.5c-0.6,0-1,0.2-1.3,0.5c-0.3,0.4-0.4,0.9-0.4,1.6c0,0.7,0.1,1.2,0.4,1.6c0.3,0.4,0.7,0.5,1.2,0.5
				C719.8,207.2,720.3,206.5,720.3,205.1z"/>
			<path class="st2" d="M727.6,202.4c0.4,0.3,0.7,0.7,0.7,1.2v4.8c0,0.7-0.2,1.2-0.7,1.7c-0.4,0.4-1.2,0.6-2.1,0.6
				c-0.7,0-1.4-0.1-1.9-0.3v-1.2c0.7,0.2,1.3,0.4,1.8,0.4c0.6,0,1.1-0.1,1.3-0.3c0.2-0.2,0.3-0.5,0.3-0.9v-0.4
				c-0.2,0.1-0.5,0.2-0.8,0.3c-0.3,0.1-0.5,0.1-0.8,0.1c-0.9,0-1.5-0.3-2-0.8c-0.5-0.5-0.7-1.3-0.7-2.2c0-1.2,0.3-2.1,0.9-2.6
				c0.6-0.5,1.3-0.7,2.3-0.7C726.6,202,727.1,202.1,727.6,202.4z M724.4,206.7c0.3,0.4,0.7,0.5,1.2,0.5c0.5,0,1-0.1,1.4-0.3v-3.2
				c0-0.3-0.1-0.5-0.3-0.6c-0.2-0.1-0.5-0.2-0.9-0.2c-0.7,0-1.2,0.2-1.4,0.6s-0.4,0.9-0.4,1.6C724,205.9,724.2,206.4,724.4,206.7z"
				/>
			<path class="st2" d="M730,202.7c0.2-0.1,0.6-0.3,1.1-0.4c0.5-0.2,1.1-0.2,1.6-0.2c0.3,0,0.6,0.1,0.8,0.2v1c-0.2,0-0.5,0-0.8,0
				c-0.5,0-1,0-1.5,0.1v4.9H730V202.7z"/>
			<path class="st2" d="M739.1,202.4c0.5,0.3,0.7,0.8,0.7,1.5v2.9c0,0.5-0.2,0.9-0.7,1.1c-0.5,0.2-1.2,0.3-2.1,0.3
				c-0.7,0-1.3-0.1-1.8-0.4c-0.5-0.3-0.7-0.8-0.7-1.5c0-0.7,0.2-1.1,0.6-1.5s0.9-0.5,1.6-0.5c0.7,0,1.3,0.1,1.8,0.4v-0.6
				c0-0.8-0.5-1.2-1.5-1.2c-0.4,0-0.7,0.1-1.1,0.2c-0.4,0.1-0.6,0.3-0.9,0.5v-1.2c0.2-0.1,0.5-0.3,1-0.4c0.4-0.1,0.9-0.1,1.3-0.1
				C738,202,738.6,202.1,739.1,202.4z M738.2,207.2c0.2-0.1,0.3-0.2,0.3-0.4v-1.2c-0.4-0.2-0.9-0.3-1.3-0.3c-0.5,0-0.8,0.1-1,0.2
				c-0.2,0.2-0.4,0.4-0.4,0.7c0,0.3,0.1,0.6,0.4,0.8c0.3,0.2,0.6,0.3,1,0.3C737.6,207.3,738,207.3,738.2,207.2z"/>
			<path class="st2" d="M749.9,202.5c0.4,0.4,0.6,0.9,0.6,1.6v4h-1.3v-3.8c0-0.8-0.5-1.3-1.4-1.3c-0.4,0-0.8,0.1-1.2,0.3
				c0.1,0.2,0.1,0.5,0.1,0.8v4h-1.3v-3.8c0-0.8-0.5-1.3-1.4-1.3c-0.4,0-0.9,0.1-1.3,0.2v4.8h-1.3v-5.5c0.4-0.2,0.8-0.3,1.3-0.5
				c0.5-0.1,1-0.2,1.5-0.2c0.8,0,1.4,0.2,1.8,0.5c0.6-0.3,1.3-0.5,2-0.5C748.9,202,749.5,202.2,749.9,202.5z"/>
			<path class="st2" d="M756.6,202.4c0.5,0.3,0.7,0.8,0.7,1.5v2.9c0,0.5-0.2,0.9-0.7,1.1c-0.5,0.2-1.2,0.3-2.1,0.3
				c-0.7,0-1.3-0.1-1.8-0.4c-0.5-0.3-0.7-0.8-0.7-1.5c0-0.7,0.2-1.1,0.6-1.5s0.9-0.5,1.6-0.5c0.7,0,1.3,0.1,1.8,0.4v-0.6
				c0-0.8-0.5-1.2-1.5-1.2c-0.4,0-0.7,0.1-1.1,0.2c-0.4,0.1-0.6,0.3-0.9,0.5v-1.2c0.2-0.1,0.5-0.3,1-0.4c0.4-0.1,0.9-0.1,1.3-0.1
				C755.5,202,756.1,202.1,756.6,202.4z M755.7,207.2c0.2-0.1,0.3-0.2,0.3-0.4v-1.2c-0.4-0.2-0.9-0.3-1.3-0.3c-0.5,0-0.8,0.1-1,0.2
				c-0.2,0.2-0.4,0.4-0.4,0.7c0,0.3,0.1,0.6,0.4,0.8c0.3,0.2,0.6,0.3,1,0.3C755.1,207.3,755.5,207.3,755.7,207.2z"/>
			<path class="st2" d="M764.3,199.6v7.3c0,0.3-0.1,0.6-0.4,0.8c-0.3,0.2-0.6,0.4-1,0.5c-0.4,0.1-0.8,0.2-1.2,0.2
				c-0.9,0-1.6-0.2-2.1-0.7c-0.6-0.5-0.8-1.3-0.8-2.5c0-1,0.2-1.7,0.7-2.3c0.5-0.5,1.2-0.8,2.1-0.8c0.2,0,0.5,0,0.8,0.1
				c0.3,0.1,0.5,0.1,0.8,0.3v-2.7H764.3z M763,203.4c-0.2-0.1-0.4-0.2-0.6-0.3c-0.2-0.1-0.5-0.1-0.7-0.1c-1.1,0-1.7,0.7-1.7,2
				c0,0.7,0.1,1.2,0.4,1.6c0.3,0.4,0.7,0.6,1.3,0.6c0.4,0,0.7,0,0.9-0.1s0.4-0.2,0.4-0.3V203.4z"/>
			<path class="st2" d="M766.5,207.5c-0.5-0.5-0.7-1.3-0.7-2.4c0-2.1,1-3.2,2.9-3.2c1,0,1.7,0.3,2.2,0.8c0.5,0.5,0.7,1.3,0.7,2.3
				c0,1-0.3,1.8-0.8,2.4c-0.5,0.6-1.2,0.8-2.1,0.8C767.7,208.3,767,208,766.5,207.5z M770.3,205.1c0-0.7-0.1-1.2-0.4-1.6
				c-0.3-0.3-0.7-0.5-1.3-0.5c-0.6,0-1,0.2-1.3,0.5c-0.3,0.4-0.4,0.9-0.4,1.6c0,0.7,0.1,1.2,0.4,1.6c0.3,0.4,0.7,0.5,1.2,0.5
				C769.7,207.2,770.3,206.5,770.3,205.1z"/>
			<path class="st2" d="M773,202.7c0.2-0.1,0.6-0.3,1.1-0.4s1.1-0.2,1.6-0.2c0.3,0,0.6,0.1,0.8,0.2v1c-0.2,0-0.5,0-0.8,0
				c-0.5,0-1,0-1.5,0.1v4.9H773V202.7z"/>
		</g>
	</g>
	<g>
		<rect x="392.5" y="46.5" class="st2" width="139.5" height="75.9"/>
		
			<linearGradient id="SVGID_2_" gradientUnits="userSpaceOnUse" x1="443.0857" y1="-16215.6504" x2="443.0857" y2="-16240.3506" gradientTransform="matrix(1 0 0 -1 0 -16080)">
			<stop  offset="0" style="stop-color:#FFFFFF"/>
			<stop  offset="1" style="stop-color:#F7F7F7"/>
		</linearGradient>
		<rect x="424.9" y="135.6" class="st3" width="36.4" height="24.7"/>
		
			<linearGradient id="SVGID_3_" gradientUnits="userSpaceOnUse" x1="462.3358" y1="-16248.9004" x2="462.3358" y2="-16280.7002" gradientTransform="matrix(1 0 0 -1 0 -16080)">
			<stop  offset="0" style="stop-color:#FFFFFF"/>
			<stop  offset="1" style="stop-color:#F7F7F7"/>
		</linearGradient>
		<rect x="409.7" y="168.9" class="st4" width="105.3" height="31.8"/>
		
			<linearGradient id="SVGID_4_" gradientUnits="userSpaceOnUse" x1="462.5857" y1="-16265" x2="462.5857" y2="-16310.0996" gradientTransform="matrix(1 0 0 -1 0 -16080)">
			<stop  offset="0" style="stop-color:#FFFFFF"/>
			<stop  offset="1" style="stop-color:#F7F7F7"/>
		</linearGradient>
		<rect x="424.9" y="185" class="st5" width="75.4" height="45.1"/>
		<g id="_Grupo_">
			<rect x="438.3" y="184" class="st6" width="46" height="15"/>
		</g>
		<g id="_Grupo_2">
			<polygon class="st6" points="438.3,79.6 423,79.6 438.2,62.4 409.7,62.4 409.7,108.9 453.7,108.9 453.7,63.8 			"/>
		</g>
		<g id="_Grupo_3">
			<polygon class="st6" points="499.6,79.6 484.2,79.6 499.5,62.4 470.9,62.4 470.9,108.9 514.9,108.9 514.9,63.8 			"/>
		</g>
		<rect x="453.7" y="291.3" class="st7" width="17.1" height="14.7"/>
		<rect x="485.6" y="276.6" class="st7" width="14.7" height="14.7"/>
		<rect x="424.3" y="276.6" class="st7" width="14.7" height="14.7"/>
		<polygon class="st7" points="377.8,46.5 377.8,78.3 363.1,78.3 363.1,93 377.8,93 377.8,122.4 392.5,122.4 392.5,46.5 		"/>
		<polygon class="st7" points="532.1,31.8 514.9,31.8 514.9,16.6 499.6,31.8 482.6,31.8 497.8,17.1 497.8,0 480.7,0 480.7,17.1 
			443.9,17.1 443.9,0 426.8,0 426.8,17.1 409.7,17.1 409.7,31.8 392.5,31.8 392.5,46.5 532.1,46.5 		"/>
		<path class="st7" d="M532.1,139.6v-17.1H392.6v17.1h31.8v14.7l15.2-14.7h15.1l-15,14.7h-61.8v75.9h-7.4v14.7h29.4v-14.7h-7.3
			v-14.7h17.1v14.7h14.7v14.7h14.7V262h46.5v-17.2h14.7v-14.7H515v-14.7h17.1v14.7h-9.8v14.7h31.8v-14.7h-7.3v-75.9h-46.5v-14.7
			L532.1,139.6L532.1,139.6z M514.9,168.9v31.8h-14.7v14.7h-14.7v14.7H439v-14.7h-14.7v-14.7h-14.7v-31.8H514.9z"/>
		<polygon class="st7" points="546.8,122.4 546.8,93 561.4,93 561.4,75.9 546.8,75.9 546.8,46.5 532.1,46.5 532.1,122.4 		"/>
	</g>
</g>
<rect x="895.7" y="576.1" class="st2" width="9.9" height="9.9"/>
<g class="st8">
	<rect x="949.4" y="343.6" class="st9" width="9.9" height="9.9"/>
	<rect x="1015.8" y="315.1" class="st9" width="9.9" height="9.9"/>
	<rect x="693.4" y="358.5" class="st9" width="9.9" height="9.9"/>
	<rect x="1229" y="318.9" class="st2" width="9.9" height="9.9"/>
	<rect x="1241.6" y="383.1" class="st10" width="9.9" height="9.9"/>
	<rect x="1024.6" y="447.4" class="st2" width="9.9" height="9.9"/>
	<rect x="1181.5" y="279.5" class="st9" width="9.9" height="9.9"/>
	<rect x="870" y="343.6" class="st9" width="9.9" height="9.9"/>
	<rect x="994.8" y="457.2" class="st9" width="9.9" height="9.9"/>
	<rect x="602.3" y="373.3" class="st9" width="9.9" height="9.9"/>
	<rect x="1201.9" y="343.6" class="st2" width="9.9" height="9.9"/>
	<rect x="614.1" y="348.6" class="st2" width="9.9" height="9.9"/>
	<rect x="640.6" y="314" class="st2" width="9.9" height="9.9"/>
	<rect x="381" y="412.8" class="st9" width="9.9" height="9.9"/>
	<rect x="955.2" y="437.5" class="st9" width="9.9" height="9.9"/>
	<rect x="810.5" y="383.1" class="st9" width="9.9" height="9.9"/>
	<rect x="609.1" y="294.2" class="st2" width="9.9" height="9.9"/>
	<rect x="502.9" y="298.2" class="st2" width="9.9" height="9.9"/>
	<rect x="837.2" y="303.1" class="st11" width="9.9" height="9.9"/>
	<rect x="568" y="310.1" class="st2" width="9.9" height="9.9"/>
	<rect x="687" y="293.3" class="st9" width="9.9" height="9.9"/>
	<rect x="534.8" y="333.8" class="st9" width="9.9" height="9.9"/>
	<rect x="1132.5" y="333.8" class="st9" width="9.9" height="9.9"/>
	<rect x="524.8" y="417.7" class="st2" width="9.9" height="9.9"/>
	<rect x="1079.7" y="288.3" class="st2" width="9.9" height="9.9"/>
	<rect x="980" y="283.4" class="st2" width="9.9" height="9.9"/>
	<rect x="1263.2" y="486.8" class="st9" width="9.9" height="9.9"/>
	<rect x="786.6" y="437.5" class="st9" width="9.9" height="9.9"/>
	<rect x="1127.5" y="462.2" class="st9" width="9.9" height="9.9"/>
	<rect x="514.9" y="393" class="st9" width="9.9" height="9.9"/>
	<rect x="1193.7" y="368.3" class="st9" width="9.9" height="9.9"/>
	<rect x="286.7" y="320" class="st2" width="9.9" height="9.9"/>
	<rect x="440.5" y="447.3" class="st9" width="9.9" height="9.9"/>
	<rect x="633.9" y="452.3" class="st9" width="9.9" height="9.9"/>
	<rect x="228.6" y="329.9" class="st9" width="9.9" height="9.9"/>
	<rect x="366.2" y="368.3" class="st9" width="9.9" height="9.9"/>
	<rect x="1164" y="407.8" class="st2" width="9.9" height="9.9"/>
	<rect x="707.2" y="437.5" class="st9" width="9.9" height="9.9"/>
	<rect x="1084.6" y="368.3" class="st9" width="9.9" height="9.9"/>
	<rect x="936.4" y="323.9" class="st11" width="9.9" height="9.9"/>
	<rect x="237.2" y="378.2" class="st9" width="9.9" height="9.9"/>
	<rect x="443.6" y="323.9" class="st9" width="9.9" height="9.9"/>
	<rect x="1005.3" y="388.1" class="st9" width="9.9" height="9.9"/>
	<rect x="497.3" y="353.5" class="st2" width="9.9" height="9.9"/>
	<rect x="867" y="422.6" class="st2" width="9.9" height="9.9"/>
	<rect x="403.9" y="294.2" class="st2" width="9.9" height="9.9"/>
	<rect x="177.7" y="319" class="st9" width="9.9" height="9.9"/>
	<rect x="107.8" y="309.1" class="st9" width="9.9" height="9.9"/>
	<rect x="293.6" y="457.2" class="st9" width="9.9" height="9.9"/>
	<rect x="837.2" y="363.4" class="st9" width="9.9" height="9.9"/>
	<rect x="128.1" y="437.5" class="st9" width="9.9" height="9.9"/>
	<rect x="358.6" y="325" class="st9" width="9.9" height="9.9"/>
	<rect x="807.5" y="343.6" class="st10" width="9.9" height="9.9"/>
	<rect x="787.7" y="284.4" class="st9" width="9.9" height="9.9"/>
	<rect x="455.4" y="412.8" class="st9" width="9.9" height="9.9"/>
	<rect x="767.8" y="304.1" class="st10" width="9.9" height="9.9"/>
	<rect x="514.9" y="493.6" class="st9" width="9.9" height="9.9"/>
	<rect x="68.7" y="368.3" class="st11" width="9.9" height="9.9"/>
	<rect x="856.5" y="447.3" class="st9" width="9.9" height="9.9"/>
	<rect x="728.2" y="353.5" class="st11" width="9.9" height="9.9"/>
	<rect x="221" y="288.3" class="st2" width="9.9" height="9.9"/>
</g>
</svg>
