<svg id="Grid" xmlns="http://www.w3.org/2000/svg" xmlns:xlink="http://www.w3.org/1999/xlink" viewBox="0 0 1366 795.5"><defs><style>.cls-1{fill:url(#Degradado_sin_nombre);}.cls-2{opacity:0.7;}.cls-3{fill:#fff;}.cls-4{fill:#e3e3e3;}.cls-5{fill:#cacaca;}.cls-6{fill:#f0f0f0;}.cls-7{fill:url(#Degradado_sin_nombre_2);}.cls-8{fill:url(#Degradado_sin_nombre_3);}.cls-9{fill:url(#Degradado_sin_nombre_4);}.cls-10{fill:#2b4690;}.cls-11{fill:#14264d;}</style><linearGradient id="Degradado_sin_nombre" x1="683" y1="16894.29" x2="683" y2="17689.79" gradientTransform="translate(0 -16894.29)" gradientUnits="userSpaceOnUse"><stop offset="0" stop-color="#f7f7f7"/><stop offset="1" stop-color="#fff"/></linearGradient><linearGradient id="Degradado_sin_nombre_2" x1="664.5" y1="17309.26" x2="664.5" y2="17333.96" gradientTransform="translate(0 -16894.29)" gradientUnits="userSpaceOnUse"><stop offset="0" stop-color="#fff"/><stop offset="1" stop-color="#f7f7f7"/></linearGradient><linearGradient id="Degradado_sin_nombre_3" x1="683.75" y1="17342.54" x2="683.75" y2="17374.34" xlink:href="#Degradado_sin_nombre_2"/><linearGradient id="Degradado_sin_nombre_4" x1="684" y1="17358.69" x2="684" y2="17403.79" xlink:href="#Degradado_sin_nombre_2"/></defs><title>Mesa de trabajo 1</title><rect class="cls-1" width="1366" height="795.5"/><g class="cls-2"><rect class="cls-3" x="464.2" y="272" width="9.9" height="9.9"/><rect class="cls-3" x="573.2" y="475.3" width="9.9" height="9.9"/><rect class="cls-3" x="583.2" y="475.3" width="9.9" height="9.9"/><rect class="cls-3" x="355.1" y="311.6" width="9.9" height="9.9"/><rect class="cls-3" x="806.3" y="415.3" width="9.9" height="9.9"/><rect class="cls-3" x="1088.4" y="331.3" width="9.9" height="9.9"/><rect class="cls-3" x="1123.1" y="488.4" width="9.9" height="9.9"/><rect class="cls-3" x="1053.7" y="518" width="9.9" height="9.9"/><rect class="cls-3" x="1103.3" y="518" width="9.9" height="9.9"/><rect class="cls-4" x="943.2" y="583.2" width="9.9" height="9.9"/><rect class="cls-5" x="781.5" y="94.3" width="9.9" height="9.9"/><rect class="cls-4" x="1009.6" y="183.2" width="9.9" height="9.9"/><rect class="cls-5" x="894.5" y="21.6" width="9.9" height="9.9"/><rect class="cls-3" x="275.6" y="158.5" width="9.9" height="9.9"/><rect class="cls-6" x="999.7" y="459.7" width="9.9" height="9.9"/><rect class="cls-3" x="965" y="348.6" width="9.9" height="9.9"/><rect class="cls-4" x="960" y="509.1" width="9.9" height="9.9"/><rect class="cls-3" x="1235.4" y="230.8" width="9.9" height="9.9"/><rect class="cls-4" x="965" y="229.2" width="9.9" height="9.9"/><rect class="cls-4" x="1009.6" y="554.6" width="9.9" height="9.9"/><rect class="cls-4" x="1128.1" y="224.3" width="9.9" height="9.9"/><rect class="cls-3" x="989.8" y="420.2" width="9.9" height="9.9"/><rect class="cls-5" x="875.7" y="222.7" width="9.9" height="9.9"/><rect class="cls-4" x="687.3" y="598" width="9.9" height="9.9"/><rect class="cls-3" x="1296.7" y="262.2" width="9.9" height="9.9"/><rect class="cls-3" x="979.9" y="420.2" width="9.9" height="9.9"/><rect class="cls-3" x="1255.3" y="533.8" width="9.9" height="9.9"/><rect class="cls-4" x="979.9" y="153.5" width="9.9" height="9.9"/><rect class="cls-4" x="481.2" y="514" width="9.9" height="9.9"/><rect class="cls-4" x="1240.6" y="301.7" width="9.9" height="9.9"/><rect class="cls-5" x="1235.4" y="622.7" width="9.9" height="9.9"/><rect class="cls-4" x="816.2" y="439.9" width="9.9" height="9.9"/><rect class="cls-3" x="1018.5" y="686.9" width="9.9" height="9.9"/><rect class="cls-4" x="883.7" y="514" width="9.9" height="9.9"/><rect class="cls-3" x="950.1" y="459.7" width="9.9" height="9.9"/><rect class="cls-3" x="950.1" y="449.8" width="9.9" height="9.9"/><rect class="cls-3" x="950.1" y="439.9" width="9.9" height="9.9"/><rect class="cls-5" x="950.1" y="430.1" width="9.9" height="9.9"/><rect class="cls-3" x="950.1" y="420.2" width="9.9" height="9.9"/><rect class="cls-3" x="1257" y="331.3" width="9.9" height="9.9"/><rect class="cls-4" x="816.2" y="439.9" width="9.9" height="9.9"/><rect class="cls-3" x="950.1" y="163.4" width="9.9" height="9.9"/><rect class="cls-4" x="1225.5" y="523.9" width="9.9" height="9.9"/><rect class="cls-3" x="940.2" y="459.7" width="9.9" height="9.9"/><rect class="cls-3" x="940.2" y="449.8" width="9.9" height="9.9"/><rect class="cls-3" x="940.2" y="430.1" width="9.9" height="9.9"/><rect class="cls-3" x="940.2" y="420.2" width="9.9" height="9.9"/><rect class="cls-3" x="1247.1" y="390.6" width="9.9" height="9.9"/><rect class="cls-4" x="1311.5" y="425.9" width="9.9" height="9.9"/><rect class="cls-4" x="863.9" y="583.2" width="9.9" height="9.9"/><rect class="cls-4" x="1083.5" y="162.5" width="9.9" height="9.9"/><rect class="cls-4" x="860.8" y="168.3" width="9.9" height="9.9"/><rect class="cls-3" x="930.3" y="459.7" width="9.9" height="9.9"/><rect class="cls-3" x="930.3" y="449.8" width="9.9" height="9.9"/><rect class="cls-3" x="930.3" y="439.9" width="9.9" height="9.9"/><rect class="cls-3" x="930.3" y="410.3" width="9.9" height="9.9"/><rect class="cls-4" x="692.3" y="123.9" width="9.9" height="9.9"/><rect class="cls-4" x="988.7" y="696.7" width="9.9" height="9.9"/><rect class="cls-3" x="930.3" y="163.4" width="9.9" height="9.9"/><rect class="cls-4" x="930.3" y="153.5" width="9.9" height="9.9"/><rect class="cls-3" x="920.4" y="459.7" width="9.9" height="9.9"/><rect class="cls-3" x="920.4" y="449.8" width="9.9" height="9.9"/><rect class="cls-3" x="920.4" y="420.2" width="9.9" height="9.9"/><rect class="cls-3" x="920.4" y="410.3" width="9.9" height="9.9"/><rect class="cls-3" x="920.4" y="400.4" width="9.9" height="9.9"/><rect class="cls-3" x="920.4" y="360.9" width="9.9" height="9.9"/><rect class="cls-4" x="617.9" y="736.3" width="9.9" height="9.9"/><rect class="cls-4" x="1296.7" y="481.9" width="9.9" height="9.9"/><rect class="cls-4" x="596.1" y="612.8" width="9.9" height="9.9"/><rect class="cls-3" x="1195.8" y="583.2" width="9.9" height="9.9"/><rect class="cls-4" x="920.4" y="183.2" width="9.9" height="9.9"/><rect class="cls-3" x="920.4" y="163.4" width="9.9" height="9.9"/><rect class="cls-3" x="920.4" y="153.5" width="9.9" height="9.9"/><rect class="cls-3" x="910.4" y="459.7" width="9.9" height="9.9"/><rect class="cls-3" x="910.4" y="439.9" width="9.9" height="9.9"/><rect class="cls-3" x="910.4" y="420.2" width="9.9" height="9.9"/><rect class="cls-3" x="910.4" y="390.6" width="9.9" height="9.9"/><rect class="cls-3" x="910.4" y="380.7" width="9.9" height="9.9"/><rect class="cls-3" x="910.4" y="341.2" width="9.9" height="9.9"/><rect class="cls-6" x="910.4" y="272" width="9.9" height="9.9"/><rect class="cls-4" x="1316.5" y="256.4" width="9.9" height="9.9"/><rect class="cls-5" x="1176.4" y="127.4" width="9.9" height="9.9"/><rect class="cls-3" x="607.9" y="588.1" width="9.9" height="9.9"/><rect class="cls-3" x="910.4" y="163.4" width="9.9" height="9.9"/><rect class="cls-3" x="900.5" y="439.9" width="9.9" height="9.9"/><rect class="cls-3" x="900.5" y="420.2" width="9.9" height="9.9"/><rect class="cls-3" x="900.5" y="360.9" width="9.9" height="9.9"/><rect class="cls-3" x="900.5" y="321.4" width="9.9" height="9.9"/><rect class="cls-3" x="900.5" y="291.8" width="9.9" height="9.9"/><rect class="cls-3" x="900.5" y="281.9" width="9.9" height="9.9"/><rect class="cls-3" x="622.8" y="553.5" width="9.9" height="9.9"/><rect class="cls-4" x="374.9" y="652.3" width="9.9" height="9.9"/><rect class="cls-3" x="890.6" y="430.1" width="9.9" height="9.9"/><rect class="cls-3" x="890.6" y="410.3" width="9.9" height="9.9"/><rect class="cls-6" x="890.6" y="400.4" width="9.9" height="9.9"/><rect class="cls-5" x="1243.5" y="430.1" width="9.9" height="9.9"/><rect class="cls-3" x="1197.5" y="351.1" width="9.9" height="9.9"/><rect class="cls-5" x="612.9" y="523.9" width="9.9" height="9.9"/><rect class="cls-4" x="949" y="677" width="9.9" height="9.9"/><rect class="cls-4" x="890.6" y="183.2" width="9.9" height="9.9"/><rect class="cls-3" x="880.7" y="439.9" width="9.9" height="9.9"/><rect class="cls-3" x="880.7" y="410.3" width="9.9" height="9.9"/><rect class="cls-4" x="804.4" y="622.7" width="9.9" height="9.9"/><rect class="cls-3" x="603" y="533.8" width="9.9" height="9.9"/><rect class="cls-3" x="558.4" y="533.8" width="9.9" height="9.9"/><rect class="cls-6" x="804.4" y="543.7" width="9.9" height="9.9"/><rect class="cls-5" x="1286.8" y="157.6" width="9.9" height="9.9"/><rect class="cls-6" x="870.8" y="430.1" width="9.9" height="9.9"/><rect class="cls-3" x="870.8" y="420.2" width="9.9" height="9.9"/><rect class="cls-3" x="870.8" y="410.3" width="9.9" height="9.9"/><rect class="cls-4" x="593.1" y="553.5" width="9.9" height="9.9"/><rect class="cls-4" x="1187.6" y="178.2" width="9.9" height="9.9"/><rect class="cls-3" x="1196.4" y="458.8" width="9.9" height="9.9"/><rect class="cls-3" x="860.8" y="439.9" width="9.9" height="9.9"/><rect class="cls-3" x="860.8" y="430.1" width="9.9" height="9.9"/><rect class="cls-3" x="860.8" y="420.2" width="9.9" height="9.9"/><rect class="cls-6" x="860.8" y="311.6" width="9.9" height="9.9"/><rect class="cls-3" x="583.2" y="553.5" width="9.9" height="9.9"/><rect class="cls-4" x="662.5" y="543.7" width="9.9" height="9.9"/><rect class="cls-4" x="72.3" y="370.8" width="9.9" height="9.9"/><rect class="cls-3" x="1131.5" y="351.1" width="9.9" height="9.9"/><rect class="cls-4" x="1167.7" y="291.8" width="9.9" height="9.9"/><rect class="cls-4" x="1113.2" y="518" width="9.9" height="9.9"/><rect class="cls-3" x="1113.2" y="498.2" width="9.9" height="9.9"/><rect class="cls-4" x="1113.2" y="488.4" width="9.9" height="9.9"/><rect class="cls-3" x="850.9" y="439.9" width="9.9" height="9.9"/><rect class="cls-3" x="850.9" y="380.7" width="9.9" height="9.9"/><rect class="cls-3" x="850.9" y="360.9" width="9.9" height="9.9"/><rect class="cls-4" x="850.9" y="341.2" width="9.9" height="9.9"/><rect class="cls-4" x="806.3" y="385.6" width="9.9" height="9.9"/><rect class="cls-4" x="528.6" y="573.3" width="9.9" height="9.9"/><rect class="cls-4" x="1126.4" y="573.3" width="9.9" height="9.9"/><rect class="cls-4" x="573.2" y="504.1" width="9.9" height="9.9"/><rect class="cls-4" x="612.9" y="94.3" width="9.9" height="9.9"/><rect class="cls-3" x="1103.3" y="498.2" width="9.9" height="9.9"/><rect class="cls-4" x="1167.7" y="99.2" width="9.9" height="9.9"/><rect class="cls-3" x="841" y="380.7" width="9.9" height="9.9"/><rect class="cls-3" x="841" y="370.8" width="9.9" height="9.9"/><rect class="cls-3" x="841" y="360.9" width="9.9" height="9.9"/><rect class="cls-4" x="1019.5" y="336.8" width="9.9" height="9.9"/><rect class="cls-6" x="1093.4" y="508.1" width="9.9" height="9.9"/><rect class="cls-6" x="1318.3" y="336.8" width="9.9" height="9.9"/><rect class="cls-5" x="493.9" y="104.2" width="9.9" height="9.9"/><rect class="cls-3" x="831.1" y="439.9" width="9.9" height="9.9"/><rect class="cls-3" x="831.1" y="430.1" width="9.9" height="9.9"/><rect class="cls-3" x="831.1" y="420.2" width="9.9" height="9.9"/><rect class="cls-3" x="831.1" y="410.3" width="9.9" height="9.9"/><rect class="cls-3" x="831.1" y="380.7" width="9.9" height="9.9"/><rect class="cls-3" x="831.1" y="370.8" width="9.9" height="9.9"/><rect class="cls-3" x="831.1" y="341.2" width="9.9" height="9.9"/><rect class="cls-3" x="889.5" y="785.6" width="9.9" height="9.9"/><rect class="cls-5" x="1078.5" y="375.8" width="9.9" height="9.9"/><rect class="cls-3" x="1083.4" y="518" width="9.9" height="9.9"/><rect class="cls-3" x="1177.7" y="494.3" width="9.9" height="9.9"/><rect class="cls-6" x="1101.8" y="301.7" width="9.9" height="9.9"/><rect class="cls-3" x="821.2" y="420.2" width="9.9" height="9.9"/><rect class="cls-3" x="821.2" y="410.3" width="9.9" height="9.9"/><rect class="cls-3" x="821.2" y="400.4" width="9.9" height="9.9"/><rect class="cls-3" x="821.2" y="370.8" width="9.9" height="9.9"/><rect class="cls-3" x="821.2" y="360.9" width="9.9" height="9.9"/><rect class="cls-3" x="821.2" y="341.2" width="9.9" height="9.9"/><rect class="cls-3" x="776.6" y="405.4" width="9.9" height="9.9"/><rect class="cls-3" x="518.7" y="657.2" width="9.9" height="9.9"/><rect class="cls-4" x="776.6" y="375.7" width="9.9" height="9.9"/><rect class="cls-4" x="1197.5" y="422.7" width="9.9" height="9.9"/><rect class="cls-4" x="1073.5" y="537.7" width="9.9" height="9.9"/><rect class="cls-3" x="1073.5" y="527.9" width="9.9" height="9.9"/><rect class="cls-3" x="1182.6" y="373.3" width="9.9" height="9.9"/><rect class="cls-6" x="1083.5" y="277" width="9.9" height="9.9"/><rect class="cls-3" x="1073.5" y="488.4" width="9.9" height="9.9"/><rect class="cls-3" x="811.3" y="400.4" width="9.9" height="9.9"/><rect class="cls-5" x="815.7" y="261.3" width="9.9" height="9.9"/><rect class="cls-4" x="1063.6" y="508.1" width="9.9" height="9.9"/><rect class="cls-5" x="1128.1" y="109.1" width="9.9" height="9.9"/><rect class="cls-3" x="1217.3" y="147.7" width="9.9" height="9.9"/><rect class="cls-3" x="801.3" y="439.9" width="9.9" height="9.9"/><rect class="cls-3" x="801.3" y="430.1" width="9.9" height="9.9"/><rect class="cls-3" x="801.3" y="341.2" width="9.9" height="9.9"/><rect class="cls-3" x="801.3" y="331.3" width="9.9" height="9.9"/><rect class="cls-3" x="801.3" y="232.5" width="9.9" height="9.9"/><rect class="cls-3" x="1053.7" y="508.1" width="9.9" height="9.9"/><rect class="cls-3" x="1053.7" y="498.2" width="9.9" height="9.9"/><rect class="cls-4" x="974.9" y="363.4" width="9.9" height="9.9"/><rect class="cls-3" x="791.4" y="439.9" width="9.9" height="9.9"/><rect class="cls-4" x="791.4" y="351.1" width="9.9" height="9.9"/><rect class="cls-3" x="791.4" y="341.2" width="9.9" height="9.9"/><rect class="cls-4" x="791.4" y="321.4" width="9.9" height="9.9"/><rect class="cls-4" x="771.6" y="257.2" width="9.9" height="9.9"/><rect class="cls-3" x="781.5" y="459.7" width="9.9" height="9.9"/><rect class="cls-3" x="781.5" y="449.8" width="9.9" height="9.9"/><rect class="cls-3" x="781.5" y="439.9" width="9.9" height="9.9"/><rect class="cls-3" x="781.5" y="410.3" width="9.9" height="9.9"/><rect class="cls-3" x="781.5" y="341.2" width="9.9" height="9.9"/><rect class="cls-3" x="781.5" y="301.7" width="9.9" height="9.9"/><rect class="cls-3" x="781.5" y="272" width="9.9" height="9.9"/><rect class="cls-4" x="1167.7" y="356" width="9.9" height="9.9"/><rect class="cls-3" x="1033.9" y="537.7" width="9.9" height="9.9"/><rect class="cls-4" x="1033.9" y="527.9" width="9.9" height="9.9"/><rect class="cls-3" x="771.6" y="341.2" width="9.9" height="9.9"/><rect class="cls-3" x="771.6" y="331.3" width="9.9" height="9.9"/><rect class="cls-3" x="771.6" y="321.4" width="9.9" height="9.9"/><rect class="cls-3" x="771.6" y="291.8" width="9.9" height="9.9"/><rect class="cls-4" x="771.6" y="212.8" width="9.9" height="9.9"/><rect class="cls-3" x="771.6" y="163.4" width="9.9" height="9.9"/><rect class="cls-3" x="771.6" y="153.5" width="9.9" height="9.9"/><rect class="cls-4" x="1257" y="726.4" width="9.9" height="9.9"/><rect class="cls-5" x="384.8" y="370.8" width="9.9" height="9.9"/><rect class="cls-3" x="761.7" y="173.3" width="9.9" height="9.9"/><rect class="cls-3" x="761.7" y="163.4" width="9.9" height="9.9"/><rect class="cls-3" x="156.2" y="148.6" width="9.9" height="9.9"/><rect class="cls-3" x="751.8" y="173.3" width="9.9" height="9.9"/><rect class="cls-4" x="751.8" y="163.4" width="9.9" height="9.9"/><rect class="cls-3" x="751.8" y="153.5" width="9.9" height="9.9"/><rect class="cls-3" x="741.8" y="163.4" width="9.9" height="9.9"/><rect class="cls-4" x="1108.2" y="422.7" width="9.9" height="9.9"/><rect class="cls-6" x="1037.3" y="46.6" width="9.9" height="9.9"/><rect class="cls-6" x="493.9" y="64.6" width="9.9" height="9.9"/><rect class="cls-6" x="399.7" y="523.9" width="9.9" height="9.9"/><rect class="cls-4" x="780.4" y="677" width="9.9" height="9.9"/><rect class="cls-4" x="1121.4" y="701.7" width="9.9" height="9.9"/><rect class="cls-4" x="43.5" y="517.1" width="9.9" height="9.9"/><rect class="cls-4" x="508.8" y="632.5" width="9.9" height="9.9"/><rect class="cls-5" x="736.9" y="134.7" width="9.9" height="9.9"/><rect class="cls-6" x="1019" y="128.8" width="9.9" height="9.9"/><rect class="cls-4" x="389.8" y="7.6" width="9.9" height="9.9"/><rect class="cls-4" x="795.5" y="188.1" width="9.9" height="9.9"/><rect class="cls-3" x="785.4" y="157.6" width="9.9" height="9.9"/><rect class="cls-4" x="1187.6" y="607.8" width="9.9" height="9.9"/><rect class="cls-4" x="292.4" y="557.1" width="9.9" height="9.9"/><rect class="cls-3" x="280.6" y="559.6" width="9.9" height="9.9"/><rect class="cls-4" x="434.4" y="686.9" width="9.9" height="9.9"/><rect class="cls-4" x="627.8" y="691.8" width="9.9" height="9.9"/><rect class="cls-3" x="672.4" y="173.3" width="9.9" height="9.9"/><rect class="cls-4" x="222.5" y="569.4" width="9.9" height="9.9"/><rect class="cls-4" x="145.4" y="122.4" width="9.9" height="9.9"/><rect class="cls-4" x="360" y="607.9" width="9.9" height="9.9"/><rect class="cls-3" x="1157.8" y="647.3" width="9.9" height="9.9"/><rect class="cls-4" x="920.4" y="476.7" width="9.9" height="9.9"/><rect class="cls-4" x="821.2" y="126.3" width="9.9" height="9.9"/><rect class="cls-4" x="701.1" y="677" width="9.9" height="9.9"/><rect class="cls-6" x="641.5" y="122.4" width="9.9" height="9.9"/><rect class="cls-4" x="930.3" y="84.4" width="9.9" height="9.9"/><rect class="cls-3" x="310.4" y="504.1" width="9.9" height="9.9"/><rect class="cls-4" x="152.1" y="356" width="9.9" height="9.9"/><rect class="cls-4" x="974.9" y="296.7" width="9.9" height="9.9"/><rect class="cls-4" x="166.6" y="279.3" width="9.9" height="9.9"/><rect class="cls-4" x="984.3" y="417.7" width="9.9" height="9.9"/><rect class="cls-6" x="92.1" y="313.5" width="9.9" height="9.9"/><rect class="cls-3" x="583.2" y="439.9" width="9.9" height="9.9"/><rect class="cls-3" x="583.2" y="341.2" width="9.9" height="9.9"/><rect class="cls-3" x="583.2" y="321.4" width="9.9" height="9.9"/><rect class="cls-3" x="583.2" y="311.6" width="9.9" height="9.9"/><rect class="cls-3" x="295.5" y="114.2" width="9.9" height="9.9"/><rect class="cls-4" x="1078.5" y="607.8" width="9.9" height="9.9"/><rect class="cls-3" x="573.2" y="341.2" width="9.9" height="9.9"/><rect class="cls-3" x="573.2" y="331.3" width="9.9" height="9.9"/><rect class="cls-3" x="573.2" y="321.4" width="9.9" height="9.9"/><rect class="cls-3" x="563.3" y="331.3" width="9.9" height="9.9"/><rect class="cls-6" x="528.6" y="543.6" width="9.9" height="9.9"/><rect class="cls-3" x="553.4" y="459.7" width="9.9" height="9.9"/><rect class="cls-3" x="553.4" y="291.8" width="9.9" height="9.9"/><rect class="cls-4" x="553.4" y="252.3" width="9.9" height="9.9"/><rect class="cls-6" x="404.7" y="114" width="9.9" height="9.9"/><rect class="cls-4" x="553.4" y="153.5" width="9.9" height="9.9"/><rect class="cls-6" x="315.4" y="444.9" width="9.9" height="9.9"/><rect class="cls-6" x="930.3" y="563.4" width="9.9" height="9.9"/><rect class="cls-3" x="543.5" y="153.5" width="9.9" height="9.9"/><rect class="cls-3" x="533.6" y="281.9" width="9.9" height="9.9"/><rect class="cls-4" x="231.1" y="617.7" width="9.9" height="9.9"/><rect class="cls-4" x="320.3" y="504.1" width="9.9" height="9.9"/><rect class="cls-4" x="374.9" y="70.1" width="9.9" height="9.9"/><rect class="cls-3" x="523.7" y="291.8" width="9.9" height="9.9"/><rect class="cls-5" x="498.9" y="410.3" width="9.9" height="9.9"/><rect class="cls-4" x="235.9" y="114.2" width="9.9" height="9.9"/><rect class="cls-4" x="914.8" y="348.6" width="9.9" height="9.9"/><rect class="cls-4" x="437.4" y="563.4" width="9.9" height="9.9"/><rect class="cls-5" x="173.4" y="211.2" width="9.9" height="9.9"/><rect class="cls-4" x="518.7" y="291.8" width="9.9" height="9.9"/><rect class="cls-3" x="479" y="499.2" width="9.9" height="9.9"/><rect class="cls-4" x="999.1" y="627.6" width="9.9" height="9.9"/><rect class="cls-4" x="528.6" y="208" width="9.9" height="9.9"/><rect class="cls-3" x="491.1" y="593" width="9.9" height="9.9"/><rect class="cls-4" x="481.2" y="321.4" width="9.9" height="9.9"/><rect class="cls-4" x="171.6" y="474.5" width="9.9" height="9.9"/><rect class="cls-3" x="481.2" y="514" width="9.9" height="9.9"/><rect class="cls-3" x="484" y="163.4" width="9.9" height="9.9"/><rect class="cls-3" x="860.8" y="662.2" width="9.9" height="9.9"/><rect class="cls-3" x="397.8" y="533.8" width="9.9" height="9.9"/><rect class="cls-4" x="171.6" y="558.5" width="9.9" height="9.9"/><rect class="cls-6" x="474.1" y="153.5" width="9.9" height="9.9"/><rect class="cls-5" x="464.2" y="262.2" width="9.9" height="9.9"/><rect class="cls-4" x="464.2" y="202.9" width="9.9" height="9.9"/><rect class="cls-4" x="260.8" y="483.4" width="9.9" height="9.9"/><rect class="cls-4" x="101.6" y="548.6" width="9.9" height="9.9"/><rect class="cls-3" x="454.2" y="311.6" width="9.9" height="9.9"/><rect class="cls-3" x="454.2" y="291.8" width="9.9" height="9.9"/><rect class="cls-3" x="166.5" y="153.7" width="9.9" height="9.9"/><rect class="cls-4" x="845.4" y="368.3" width="9.9" height="9.9"/><rect class="cls-4" x="424.5" y="153.7" width="9.9" height="9.9"/><rect class="cls-4" x="287.5" y="696.7" width="9.9" height="9.9"/><rect class="cls-4" x="444.3" y="351.1" width="9.9" height="9.9"/><rect class="cls-3" x="444.3" y="341.2" width="9.9" height="9.9"/><rect class="cls-3" x="444.3" y="301.7" width="9.9" height="9.9"/><rect class="cls-4" x="831.1" y="602.9" width="9.9" height="9.9"/><rect class="cls-3" x="434.4" y="351.1" width="9.9" height="9.9"/><rect class="cls-4" x="429.4" y="306.6" width="9.9" height="9.9"/><rect class="cls-4" x="235.5" y="420.2" width="9.9" height="9.9"/><rect class="cls-4" x="441.5" y="421" width="9.9" height="9.9"/><rect class="cls-3" x="424.5" y="351.1" width="9.9" height="9.9"/><rect class="cls-4" x="122" y="677" width="9.9" height="9.9"/><rect class="cls-3" x="414.6" y="380.7" width="9.9" height="9.9"/><rect class="cls-3" x="414.6" y="341.2" width="9.9" height="9.9"/><rect class="cls-3" x="414.6" y="331.3" width="9.9" height="9.9"/><rect class="cls-4" x="352.5" y="564.5" width="9.9" height="9.9"/><rect class="cls-5" x="801.3" y="583.2" width="9.9" height="9.9"/><rect class="cls-4" x="389.8" y="466.5" width="9.9" height="9.9"/><rect class="cls-4" x="1048.7" y="425.9" width="9.9" height="9.9"/><rect class="cls-3" x="345.1" y="360.9" width="9.9" height="9.9"/><rect class="cls-4" x="781.5" y="523.9" width="9.9" height="9.9"/><rect class="cls-5" x="97.1" y="203.1" width="9.9" height="9.9"/><rect class="cls-4" x="335.2" y="380.7" width="9.9" height="9.9"/><rect class="cls-3" x="292.4" y="336.8" width="9.9" height="9.9"/><rect class="cls-4" x="449.3" y="652.3" width="9.9" height="9.9"/><rect class="cls-4" x="216.1" y="321.4" width="9.9" height="9.9"/><rect class="cls-5" x="523.7" y="479.4" width="9.9" height="9.9"/><rect class="cls-5" x="761.7" y="543.7" width="9.9" height="9.9"/><rect class="cls-5" x="374.9" y="163.4" width="9.9" height="9.9"/><rect class="cls-5" x="195.6" y="152.7" width="9.9" height="9.9"/><rect class="cls-4" x="469.4" y="483.4" width="9.9" height="9.9"/><rect class="cls-4" x="508.8" y="733.2" width="9.9" height="9.9"/><rect class="cls-6" x="285.5" y="321.4" width="9.9" height="9.9"/><rect class="cls-6" x="62.5" y="607.9" width="9.9" height="9.9"/><rect class="cls-3" x="355.1" y="351.1" width="9.9" height="9.9"/><rect class="cls-4" x="563.4" y="422.7" width="9.9" height="9.9"/><rect class="cls-3" x="156.2" y="439.9" width="9.9" height="9.9"/><rect class="cls-4" x="850.4" y="686.9" width="9.9" height="9.9"/><rect class="cls-4" x="401.9" y="211.2" width="9.9" height="9.9"/><rect class="cls-5" x="67.4" y="163.5" width="9.9" height="9.9"/><rect class="cls-3" x="345.1" y="351.1" width="9.9" height="9.9"/><rect class="cls-6" x="334.5" y="148.6" width="9.9" height="9.9"/><rect class="cls-3" x="335.2" y="351.1" width="9.9" height="9.9"/><rect class="cls-3" x="335.2" y="341.2" width="9.9" height="9.9"/><rect class="cls-4" x="335.2" y="331.3" width="9.9" height="9.9"/><rect class="cls-4" x="553.4" y="455.6" width="9.9" height="9.9"/><rect class="cls-6" x="722" y="593" width="9.9" height="9.9"/><rect class="cls-6" x="265.8" y="380.7" width="9.9" height="9.9"/><rect class="cls-5" x="352.5" y="266.2" width="9.9" height="9.9"/><rect class="cls-4" x="325.3" y="212.8" width="9.9" height="9.9"/><rect class="cls-5" x="315.4" y="252.3" width="9.9" height="9.9"/><rect class="cls-4" x="231.1" y="251.1" width="9.9" height="9.9"/><rect class="cls-4" x="285.5" y="272" width="9.9" height="9.9"/><rect class="cls-4" x="145.4" y="421" width="9.9" height="9.9"/><rect class="cls-5" x="270.7" y="183.2" width="9.9" height="9.9"/><rect class="cls-3" x="295.6" y="321.4" width="9.9" height="9.9"/><rect class="cls-4" x="96.7" y="459.7" width="9.9" height="9.9"/></g><rect class="cls-3" x="613.9" y="325.8" width="139.5" height="75.9"/><rect class="cls-7" x="646.3" y="415" width="36.4" height="24.7"/><rect class="cls-8" x="631.1" y="448.2" width="105.3" height="31.8"/><rect class="cls-9" x="646.3" y="464.4" width="75.4" height="45.1"/><rect id="_Trazado_" data-name="&lt;Trazado&gt;" class="cls-10" x="659.7" y="463.3" width="46" height="15"/><polygon id="_Trazado_2" data-name="&lt;Trazado&gt;" class="cls-10" points="659.7 358.9 644.4 358.9 659.6 341.8 631.1 341.8 631.1 388.3 675.1 388.3 675.1 343.1 659.7 358.9"/><polygon id="_Trazado_3" data-name="&lt;Trazado&gt;" class="cls-10" points="720.9 358.9 705.6 358.9 720.9 341.8 692.3 341.8 692.3 388.3 736.3 388.3 736.3 343.1 720.9 358.9"/><rect class="cls-11" x="675.1" y="570.7" width="17.1" height="14.7"/><rect class="cls-11" x="706.9" y="556" width="14.7" height="14.7"/><rect class="cls-11" x="645.7" y="556" width="14.7" height="14.7"/><polygon class="cls-11" points="599.2 325.8 599.2 357.7 584.5 357.7 584.5 372.4 599.2 372.4 599.2 401.7 613.9 401.7 613.9 325.8 599.2 325.8"/><polygon class="cls-11" points="753.5 311.1 736.3 311.1 736.3 295.9 720.9 311.1 703.9 311.1 719.2 296.5 719.2 279.3 702 279.3 702 296.5 665.3 296.5 665.3 279.3 648.2 279.3 648.2 296.5 631.1 296.5 631.1 311.1 613.9 311.1 613.9 325.8 753.5 325.8 753.5 311.1"/><path class="cls-11" d="M753.5,418.9V401.8H613.9v17.1h31.8v14.7l15.2-14.7H676l-15,14.7H599.2v75.9h-7.3v14.7h29.3V509.5h-7.3V494.8H631v14.7h14.7v14.7h14.7v17.1h46.5V524.2h14.7V509.5h14.7V494.8h17.1v14.7h-9.8v14.7h31.8V509.5h-7.3V433.6H721.6V418.9Zm-17.2,29.3V480H721.6v14.7H706.9v14.7H660.4V494.7H645.7V480H631V448.2Z"/><polygon class="cls-11" points="768.1 401.7 768.1 372.4 782.8 372.4 782.8 355.2 768.1 355.2 768.1 325.8 753.5 325.8 753.5 401.7 768.1 401.7"/></svg>