<?xml version="1.0" encoding="utf-8"?>
<!-- Generator: Adobe Illustrator 22.1.0, SVG Export Plug-In . SVG Version: 6.00 Build 0)  -->
<svg version="1.1" id="Capa_1" xmlns="http://www.w3.org/2000/svg" xmlns:xlink="http://www.w3.org/1999/xlink" x="0px" y="0px"
	 viewBox="0 0 55 56" style="enable-background:new 0 0 55 56;" xml:space="preserve">
<style type="text/css">
	.st0{fill:#1CB5DA;}
</style>
<path class="st0" d="M55.4,6.2V0h-6.2v6.2H55.4z M55.4,31.1v-6.2h-6.2v6.2C49.2,31.1,55.4,31.1,55.4,31.1z M55.4,49.7h-6.2V56h6.2
	V49.7z M49.2,18.7h-6.1v6.2h6.1V18.7z M43.1,37.3h6.1v-6.2h-6.1V37.3z M12.3,18.7H6.2v6.2h6.2L12.3,18.7L12.3,18.7z M12.3,24.9v6.2
	h6.2v-6.2C18.5,24.9,12.3,24.9,12.3,24.9z M36.9,12.4V6.2h-6.1v6.2H36.9z M30.8,0h-6.2v6.2h6.2V0z M0,24.9v6.2h6.2v-6.2
	C6.2,24.9,0,24.9,0,24.9z M18.5,31.1v6.2h6.1v-6.2C24.6,31.1,18.5,31.1,18.5,31.1z M0,0v6.2h6.2V0H0z M18.5,43.5v6.2h6.1v-6.2H18.5z
	 M6.2,37.3h6.2v-6.2H6.2V37.3z M18.5,6.2v6.2h6.1V6.2H18.5z M36.9,24.9v-6.2h-6.1v6.2C30.8,24.9,36.9,24.9,36.9,24.9z M24.6,24.9
	v6.2h6.2v-6.2C30.8,24.9,24.6,24.9,24.6,24.9z M36.9,49.7v-6.2h-6.1v6.2H36.9z M30.8,37.3h-6.2v6.2h6.2V37.3z M30.8,37.3h6.1v-6.2
	h-6.1C30.8,31.1,30.8,37.3,30.8,37.3z M24.6,18.7h-6.1v6.2h6.1V18.7z M30.8,12.4h-6.2v6.2h6.2V12.4z M24.6,49.7V56h6.2v-6.2
	L24.6,49.7L24.6,49.7z M43.1,31.1v-6.2h-6.2v6.2C36.9,31.1,43.1,31.1,43.1,31.1z M0,49.7V56h6.2v-6.2L0,49.7L0,49.7z"/>
</svg>
