<?xml version="1.0" encoding="utf-8"?>
<!-- Generator: Adobe Illustrator 22.1.0, SVG Export Plug-In . SVG Version: 6.00 Build 0)  -->
<svg version="1.1" id="Capa_1" xmlns="http://www.w3.org/2000/svg" xmlns:xlink="http://www.w3.org/1999/xlink" x="0px" y="0px"
	 viewBox="0 0 98 76" style="enable-background:new 0 0 98 76;" xml:space="preserve">
<style type="text/css">
	.st0{fill:#FFFFFF;}
</style>
<g id="XMLID_112_">
	<g id="XMLID_131_">
		<polygon id="XMLID_138_" class="st0" points="37,39.5 29.5,39.5 37,31.5 22.9,31.5 22.9,54.5 43.9,54.5 43.9,30.8 		"/>
		<polygon id="XMLID_137_" class="st0" points="67.2,39.5 59.7,39.5 67.2,31.5 52.9,31.5 52.9,54.5 73.9,54.5 73.9,30.8 		"/>
		<g id="XMLID_132_">
			<polygon id="XMLID_136_" class="st0" points="7.2,22.9 7.2,38.6 0,38.6 0,45.8 7.2,45.8 7.2,60.3 14.5,60.3 14.5,22.9 			"/>
			<polygon id="XMLID_135_" class="st0" points="83.2,15.7 74.8,15.7 74.8,8.2 67.2,15.7 58.8,15.7 66.3,8.4 66.3,0 57.9,0 
				57.9,8.4 39.8,8.4 39.8,0 31.4,0 31.4,8.4 22.9,8.4 22.9,15.7 14.5,15.7 14.5,22.9 83.2,22.9 			"/>
			<polygon id="XMLID_134_" class="st0" points="90.5,37.4 90.5,22.9 83.2,22.9 83.2,60.3 90.5,60.3 90.5,45.8 97.7,45.8 97.7,37.4 
							"/>
			<polygon id="XMLID_133_" class="st0" points="14.5,68.8 30.2,68.8 30.2,76 37.7,68.8 45.1,68.8 37.7,76 67.6,76 67.6,68.8 
				83.2,68.8 83.2,60.3 14.5,60.3 			"/>
		</g>
	</g>
</g>
</svg>
